<?xml version="1.0" encoding="utf-8"?>
<!-- Generator: Adobe Illustrator 27.0.0, SVG Export Plug-In . SVG Version: 6.00 Build 0)  -->
<svg version="1.1" id="_x30_10" xmlns="http://www.w3.org/2000/svg" xmlns:xlink="http://www.w3.org/1999/xlink" x="0px" y="0px"
	 viewBox="0 0 512 438.28" style="enable-background:new 0 0 512 438.28;" xml:space="preserve">
<style type="text/css">
	.st0{fill:#AE8253;}
	.st1{fill:#663A17;}
	.st2{fill:#CDA075;}
	.st3{fill:#EED0AE;}
</style>
<g>
	<g>
		<path class="st0" d="M100.13,166.54c0,0-13.92-61.76,28.79-134.87s114.91,27.74,162.15,40.85"/>
		<path class="st1" d="M100.12,171.85c-2.43,0-4.62-1.68-5.18-4.14c-0.59-2.6-13.88-64.65,29.38-138.72
			c9.26-15.86,20.8-25.31,34.28-28.09c27.35-5.63,56.96,16.18,85.6,37.28c17.71,13.05,34.45,25.38,48.29,29.23
			c2.83,0.78,4.49,3.71,3.7,6.54c-0.78,2.83-3.71,4.49-6.54,3.7c-15.73-4.37-33.22-17.26-51.75-30.91
			c-26.76-19.72-54.43-40.1-77.14-35.42c-10.55,2.18-19.47,9.71-27.25,23.04c-41.04,70.26-28.32,130.42-28.19,131.02
			c0.64,2.86-1.16,5.7-4.03,6.34C100.9,171.81,100.51,171.85,100.12,171.85z"/>
	</g>
	<g>
		<path class="st0" d="M465.89,214.7c0,0,22.79-73.36,12.29-151.54s-158.87,5.75-209.91,7.58"/>
		<path class="st1" d="M465.89,220.02c-0.52,0-1.05-0.08-1.58-0.24c-2.8-0.87-4.37-3.85-3.5-6.65c0.22-0.72,22.31-73.22,12.1-149.26
			c-1.45-10.76-5.72-18.23-13.07-22.83c-24.45-15.31-79.66,2.89-124.03,17.52c-27.52,9.08-51.28,16.91-67.36,17.49
			c-2.92,0.1-5.4-2.19-5.5-5.12s2.19-5.4,5.12-5.5c14.56-0.52,38.77-8.51,64.41-16.96c48.89-16.12,104.31-34.4,133-16.44
			c10.05,6.29,16.1,16.53,17.96,30.43c10.53,78.44-11.54,150.79-12.49,153.83C470.26,218.56,468.16,220.02,465.89,220.02z"/>
	</g>
	<g>
		<path class="st2" d="M79.69,237.07c0,0-39.63,23.89-37.19,68.13s21.63,87.32,119.71,116.63s230.91-1.45,281.22-70.21
			s45.6-199.79-100.98-264.21S71.55,160.52,79.69,237.07z"/>
	</g>
	<g>
		<path class="st3" d="M343.68,311.04c0,56.82-42.91,95.41-112.38,95.41S94.9,359.57,94.9,302.76s44.83-98.81,114.3-98.81
			S343.68,254.22,343.68,311.04z"/>
		<path class="st1" d="M231.3,411.77c-75.49,0-141.72-50.94-141.72-109.01c0-61.31,49.19-104.12,119.61-104.12
			c73.17,0,139.8,53.58,139.8,112.4C348.99,372.23,302.8,411.77,231.3,411.77z M209.19,209.27c-64.17,0-108.98,38.44-108.98,93.49
			c0,51.49,62.48,98.38,131.09,98.38c65.04,0,107.06-35.37,107.06-90.1C338.36,257.78,276.8,209.27,209.19,209.27z"/>
	</g>
	<g>
		<g>
			<path class="st1" d="M5.32,285.28c-1.59,0-3.17-0.71-4.21-2.07c-1.79-2.32-1.36-5.66,0.96-7.45c1.8-1.39,32.38-24.81,60.87-37.96
				c-15.29,1.13-33.84,5.56-49.7,18.18c-2.3,1.83-5.64,1.45-7.47-0.85c-1.83-2.3-1.45-5.64,0.85-7.47
				c37.96-30.22,87.41-18.97,89.5-18.47c2.67,0.63,4.42,3.19,4.04,5.9c-0.38,2.72-2.79,4.68-5.5,4.58
				c-22.07-0.95-69.61,31.8-86.1,44.5C7.59,284.92,6.45,285.28,5.32,285.28z"/>
		</g>
		<g>
			<path class="st1" d="M506.69,330.06c-1.43,0-2.85-0.57-3.89-1.7c-51.88-55.81-139.77-72.33-140.65-72.49
				c-2.89-0.53-4.8-3.29-4.28-6.18c0.53-2.89,3.29-4.8,6.18-4.28c3.74,0.68,92.22,17.27,146.54,75.72c2,2.15,1.88,5.51-0.27,7.51
				C509.28,329.59,507.98,330.06,506.69,330.06z"/>
		</g>
		<g>
			<path class="st1" d="M487.41,372.96c-2.05,0-4-1.19-4.87-3.18c-25.24-57.5-107.69-99.03-108.52-99.44
				c-2.63-1.31-3.7-4.5-2.39-7.13s4.49-3.7,7.12-2.39c3.53,1.75,86.73,43.63,113.53,104.69c1.18,2.69-0.04,5.82-2.73,7
				C488.85,372.81,488.13,372.96,487.41,372.96z"/>
		</g>
		<g>
			<path class="st1" d="M184.87,205.26c-0.22-1.45-0.04-2.92,0.45-4.3c0.99-2.78,3.65-6.92,10.83-7.95
				c9.59-1.38,37.82-2.9,37.46,8.14c-0.32,9.77-15.97,18.87-22.3,20.22C205.26,222.67,186.58,216.8,184.87,205.26z"/>
		</g>
		<g>
			<path class="st1" d="M349.17,207.43c-0.1,0-0.2,0-0.31,0l-56.2-1.6c-5.87-0.17-10.49-5.06-10.33-10.93
				c0.17-5.87,5.05-10.49,10.93-10.33l56.2,1.6c5.87,0.17,10.49,5.06,10.33,10.93C359.63,202.86,354.9,207.43,349.17,207.43z"/>
		</g>
		<g>
			<path class="st1" d="M163.59,197.89c-0.13,0-0.26,0-0.39-0.01l-44.94-1.6c-5.87-0.21-10.46-5.14-10.25-11
				c0.21-5.87,5.14-10.44,11-10.25l44.94,1.6c5.87,0.21,10.46,5.14,10.25,11C174.01,193.38,169.29,197.89,163.59,197.89z"/>
		</g>
	</g>
	<g>
		<path class="st1" d="M242.37,438.28c-28.02,0-55.85-3.63-81.68-11.35C56.05,395.65,39.54,347.99,37.2,305.5
			c-2.22-40.3,27.45-64.46,36.94-71.12c-2.47-41.21,29.37-95.36,76.97-130.17c34.04-24.89,104.44-60.8,193.49-21.66
			c85.58,37.61,116.44,93.5,127.27,133.76c12.98,48.3,3.96,100.05-24.13,138.45C409.95,406.39,325.42,438.27,242.37,438.28z
			 M82.45,241.62L82.45,241.62c-0.37,0.22-36.86,22.88-34.63,63.29c2.25,40.76,17.85,82.52,115.92,111.83
			C262.3,446.2,391,414.3,439.15,348.48c26.21-35.82,34.6-84.2,22.45-129.42c-10.22-38.01-39.55-90.87-121.28-126.79
			c-84.17-36.99-150.74-3.03-182.94,20.51c-46,33.63-76.45,85.66-72.4,123.72C85.2,238.56,84.21,240.55,82.45,241.62z"/>
	</g>
</g>
</svg>
