<?xml version="1.0" encoding="utf-8"?>
<!-- Generator: Adobe Illustrator 27.0.0, SVG Export Plug-In . SVG Version: 6.00 Build 0)  -->
<svg version="1.1" id="_x30_11" xmlns="http://www.w3.org/2000/svg" xmlns:xlink="http://www.w3.org/1999/xlink" x="0px" y="0px"
	 viewBox="0 0 512 438.28" style="enable-background:new 0 0 512 438.28;" xml:space="preserve">
<style type="text/css">
	.st0{fill:#AE8253;}
	.st1{fill:#663A17;}
	.st2{fill:#CDA075;}
	.st3{fill:#EED0AE;}
	.st4{clip-path:url(#SVGID_00000072257442932111043250000010081311747909143941_);}
	.st5{fill:#A26E3E;}
	.st6{clip-path:url(#SVGID_00000080909793896064501800000009047051727984154803_);}
	.st7{clip-path:url(#SVGID_00000062882374038085777570000017207750788516443291_);}
	.st8{clip-path:url(#SVGID_00000026862071410651584500000000335295428544647855_);}
	.st9{clip-path:url(#SVGID_00000007398565934979624050000016126240132114641332_);}
	.st10{clip-path:url(#SVGID_00000165225924119960614010000003838771586377300371_);}
	.st11{clip-path:url(#SVGID_00000039819414652690225490000011353905957156776345_);}
	.st12{clip-path:url(#SVGID_00000111879464904441840320000001968284484621060757_);}
</style>
<g>
	<g>
		<path class="st0" d="M100.13,166.54c0,0-13.92-61.76,28.79-134.87s114.91,27.74,162.15,40.85"/>
		<path class="st1" d="M100.12,171.85c-2.43,0-4.62-1.68-5.18-4.14c-0.59-2.6-13.88-64.65,29.38-138.72
			c9.26-15.86,20.8-25.31,34.28-28.09c27.35-5.63,56.96,16.18,85.6,37.28c17.71,13.06,34.45,25.39,48.29,29.23
			c2.83,0.78,4.49,3.71,3.7,6.54c-0.78,2.83-3.71,4.49-6.54,3.7c-15.73-4.37-33.22-17.26-51.75-30.91
			c-26.76-19.72-54.44-40.11-77.14-35.42c-10.55,2.18-19.47,9.71-27.25,23.04c-41.04,70.26-28.32,130.42-28.19,131.02
			c0.64,2.86-1.16,5.7-4.03,6.34C100.9,171.81,100.5,171.85,100.12,171.85z"/>
	</g>
	<g>
		<path class="st0" d="M465.89,214.7c0,0,22.79-73.36,12.29-151.54s-158.87,5.75-209.91,7.58"/>
		<path class="st1" d="M465.89,220.02c-0.52,0-1.05-0.08-1.58-0.24c-2.8-0.87-4.37-3.85-3.5-6.65c0.22-0.72,22.31-73.22,12.1-149.26
			c-1.45-10.76-5.72-18.23-13.07-22.83c-24.46-15.31-79.67,2.89-124.03,17.52c-27.52,9.08-51.29,16.91-67.36,17.49
			c-2.94,0.07-5.4-2.19-5.5-5.12s2.19-5.4,5.12-5.5c14.56-0.52,38.77-8.51,64.41-16.96c48.89-16.13,104.31-34.4,133-16.44
			c10.05,6.29,16.1,16.53,17.96,30.43c10.53,78.44-11.54,150.79-12.49,153.83C470.26,218.56,468.16,220.02,465.89,220.02z"/>
	</g>
	<g>
		<path class="st2" d="M79.69,237.07c0,0-39.63,23.89-37.19,68.13c2.44,44.25,21.63,87.32,119.71,116.63s230.91-1.45,281.22-70.22
			s45.6-199.79-100.98-264.21S71.55,160.52,79.69,237.07z"/>
	</g>
	<g>
		<path class="st3" d="M343.68,311.04c0,56.82-42.91,95.41-112.38,95.41S94.9,359.57,94.9,302.76s44.83-98.81,114.3-98.81
			S343.68,254.22,343.68,311.04z"/>
		<path class="st1" d="M231.3,411.77c-75.5,0-141.72-50.94-141.72-109.01c0-61.31,49.19-104.12,119.62-104.12
			c73.17,0,139.8,53.58,139.8,112.4C348.99,372.23,302.8,411.77,231.3,411.77z M209.19,209.27c-64.17,0-108.98,38.45-108.98,93.49
			c0,51.49,62.48,98.38,131.09,98.38c65.04,0,107.06-35.37,107.06-90.1C338.36,257.78,276.8,209.27,209.19,209.27z"/>
	</g>
	<g>
		<path class="st1" d="M242.37,438.28c-28.02,0-55.85-3.63-81.68-11.35C56.05,395.65,39.54,347.99,37.2,305.5
			c-2.22-40.3,27.45-64.46,36.94-71.12c-2.47-41.22,29.37-95.36,76.97-130.17c34.04-24.89,104.44-60.8,193.49-21.66
			c85.58,37.61,116.45,93.5,127.26,133.76c12.98,48.3,3.96,100.05-24.13,138.45C409.95,406.39,325.42,438.27,242.37,438.28z
			 M82.44,241.62c-0.55,0.34-36.85,22.98-34.63,63.29c2.25,40.76,17.85,82.52,115.92,111.83c98.56,29.46,227.25-2.44,275.41-68.26
			c26.21-35.82,34.6-84.2,22.45-129.42c-10.22-38.01-39.55-90.87-121.28-126.79c-84.17-36.99-150.75-3.03-182.94,20.51
			c-46,33.63-76.45,85.66-72.4,123.72C85.2,238.56,84.21,240.55,82.44,241.62z"/>
	</g>
	<g>
		<g>
			<g>
				<g>
					<defs>
						<path id="SVGID_1_" d="M340.23,91.72C482.97,154.45,487.55,282.04,438.56,349s-178.34,96.92-273.85,68.37
							S50.52,346.89,48.14,303.8s36.21-66.35,36.21-66.35C76.42,162.92,197.49,28.99,340.23,91.72z"/>
					</defs>
					<clipPath id="SVGID_00000134241492341398840040000002722795553748733355_">
						<use xlink:href="#SVGID_1_"  style="overflow:visible;"/>
					</clipPath>
					<g style="clip-path:url(#SVGID_00000134241492341398840040000002722795553748733355_);">
						<path class="st5" d="M244.5,78.68c-10.6,19.46-21.46,40.77-24.2,62.88c-0.77,10.72-16.17,10.76-17.01,0.09
							c-0.58-26.22,7.95-50.73,17.06-74.83C228.39,49.42,253.37,61.66,244.5,78.68L244.5,78.68z"/>
					</g>
				</g>
				<g>
					<defs>
						<path id="SVGID_00000163779666319476371160000013562534032915907720_" d="M340.23,91.72
							C482.97,154.45,487.55,282.04,438.56,349s-178.34,96.92-273.85,68.37S50.52,346.89,48.14,303.8s36.21-66.35,36.21-66.35
							C76.42,162.92,197.49,28.99,340.23,91.72z"/>
					</defs>
					<clipPath id="SVGID_00000071521506616434534970000008658281813621624495_">
						<use xlink:href="#SVGID_00000163779666319476371160000013562534032915907720_"  style="overflow:visible;"/>
					</clipPath>
					<g style="clip-path:url(#SVGID_00000071521506616434534970000008658281813621624495_);">
						<path class="st5" d="M276.73,83.54c-10.6,19.46-21.46,40.77-24.2,62.88c-0.77,10.72-16.17,10.76-17.01,0.09
							c-0.58-26.22,7.95-50.73,17.06-74.83C260.62,54.28,285.6,66.52,276.73,83.54L276.73,83.54z"/>
					</g>
				</g>
				<g>
					<defs>
						<path id="SVGID_00000057851720920552354770000002134131234731607225_" d="M340.23,91.72
							C482.97,154.45,487.55,282.04,438.56,349s-178.34,96.92-273.85,68.37S50.52,346.89,48.14,303.8s36.21-66.35,36.21-66.35
							C76.42,162.92,197.49,28.99,340.23,91.72z"/>
					</defs>
					<clipPath id="SVGID_00000180360872390368791250000008119051528825125553_">
						<use xlink:href="#SVGID_00000057851720920552354770000002134131234731607225_"  style="overflow:visible;"/>
					</clipPath>
					<g style="clip-path:url(#SVGID_00000180360872390368791250000008119051528825125553_);">
						<path class="st5" d="M314.32,85.68c-12.25,17.09-25.11,36.64-27.84,57.77c-1.23,10.42-16.21,10.05-16.96-0.37
							c-0.58-13.48,2.77-25.89,7-38.18c4.24-11.91,9.23-22.95,15.36-34.05C302.05,54.49,325.39,69.88,314.32,85.68L314.32,85.68z"/>
					</g>
				</g>
				<g>
					<defs>
						<path id="SVGID_00000053534040882294276610000017977822944435823752_" d="M340.23,91.72
							C482.97,154.45,487.55,282.04,438.56,349s-178.34,96.92-273.85,68.37S50.52,346.89,48.14,303.8s36.21-66.35,36.21-66.35
							C76.42,162.92,197.49,28.99,340.23,91.72z"/>
					</defs>
					<clipPath id="SVGID_00000002350277898763205020000015248445686015530384_">
						<use xlink:href="#SVGID_00000053534040882294276610000017977822944435823752_"  style="overflow:visible;"/>
					</clipPath>
					<g style="clip-path:url(#SVGID_00000002350277898763205020000015248445686015530384_);">
						<path class="st5" d="M431.18,360.08c-5.95-14.67-16.31-27.76-28.74-37.64c-7.85-6.61,0.42-18.82,9.44-14.08
							c17.52,9.29,32.81,23.08,43.45,39.88C462.61,364.48,439.57,375.79,431.18,360.08L431.18,360.08z"/>
					</g>
				</g>
				<g>
					<defs>
						<path id="SVGID_00000003085084003383830570000004287284601825998991_" d="M340.23,91.72
							C482.97,154.45,487.55,282.04,438.56,349s-178.34,96.92-273.85,68.37S50.52,346.89,48.14,303.8s36.21-66.35,36.21-66.35
							C76.42,162.92,197.49,28.99,340.23,91.72z"/>
					</defs>
					<clipPath id="SVGID_00000083083366208660054840000004471118366660574655_">
						<use xlink:href="#SVGID_00000003085084003383830570000004287284601825998991_"  style="overflow:visible;"/>
					</clipPath>
					<g style="clip-path:url(#SVGID_00000083083366208660054840000004471118366660574655_);">
						<path class="st5" d="M457.27,326.91c-8.56-13.54-19.99-25.28-32.53-35.23c-7.92-6.53,0.2-18.83,9.29-14.21
							c17.4,9.16,33.88,20.78,46.82,35.74c4.96,5.83,4.26,14.57-1.57,19.54C472.18,339.05,460.33,335.84,457.27,326.91
							L457.27,326.91z"/>
					</g>
				</g>
				<g>
					<defs>
						<path id="SVGID_00000117675910569214393670000000051821315030552716_" d="M340.23,91.72
							C482.97,154.45,487.55,282.04,438.56,349s-178.34,96.92-273.85,68.37S50.52,346.89,48.14,303.8s36.21-66.35,36.21-66.35
							C76.42,162.92,197.49,28.99,340.23,91.72z"/>
					</defs>
					<clipPath id="SVGID_00000148654476894500788000000012747238072729411206_">
						<use xlink:href="#SVGID_00000117675910569214393670000000051821315030552716_"  style="overflow:visible;"/>
					</clipPath>
					<g style="clip-path:url(#SVGID_00000148654476894500788000000012747238072729411206_);">
						<path class="st5" d="M471.4,283.67c-17.8-15.73-37.2-30.77-58.73-40.97c-9.73-4.48-4.39-18.87,5.88-15.96
							c25.15,8.05,47.88,21.28,69.67,35.95C503.32,274.29,486.05,295.89,471.4,283.67L471.4,283.67z"/>
					</g>
				</g>
				<g>
					<defs>
						<path id="SVGID_00000026120913856021028960000002772628073701431999_" d="M340.23,91.72
							C482.97,154.45,487.55,282.04,438.56,349s-178.34,96.92-273.85,68.37S50.52,346.89,48.14,303.8s36.21-66.35,36.21-66.35
							C76.42,162.92,197.49,28.99,340.23,91.72z"/>
					</defs>
					<clipPath id="SVGID_00000036240054107466093070000012405894660000126868_">
						<use xlink:href="#SVGID_00000026120913856021028960000002772628073701431999_"  style="overflow:visible;"/>
					</clipPath>
					<g style="clip-path:url(#SVGID_00000036240054107466093070000012405894660000126868_);">
						<path class="st5" d="M34.36,248.88c7.67-2.69,18.36-5.87,26.16-8.27c8.69-2.58,17.4-5.03,26.13-7.37
							c4.55-1.22,9.24,1.48,10.46,6.04c1.08,4.04-0.93,8.2-4.58,9.92c-11.58,5.51-24.24,11.92-35.64,17.93
							c-3.87,2.06-7.84,4.19-11.48,6.27c-6.48,3.69-14.73,1.42-18.42-5.06C22.77,261.11,26.43,251.5,34.36,248.88L34.36,248.88z"/>
					</g>
				</g>
				<g>
					<defs>
						<path id="SVGID_00000140705312329256821100000011528421602750243229_" d="M340.23,91.72
							C482.97,154.45,487.55,282.04,438.56,349s-178.34,96.92-273.85,68.37S50.52,346.89,48.14,303.8s36.21-66.35,36.21-66.35
							C76.42,162.92,197.49,28.99,340.23,91.72z"/>
					</defs>
					<clipPath id="SVGID_00000077290426108479926170000011835813548709427087_">
						<use xlink:href="#SVGID_00000140705312329256821100000011528421602750243229_"  style="overflow:visible;"/>
					</clipPath>
					<g style="clip-path:url(#SVGID_00000077290426108479926170000011835813548709427087_);">
						<path class="st5" d="M15.33,284.39c7.67-2.69,18.36-5.87,26.16-8.27c8.69-2.58,17.4-5.03,26.13-7.37
							c4.55-1.22,9.24,1.48,10.46,6.04c1.08,4.04-0.93,8.2-4.58,9.92c-11.58,5.51-24.24,11.92-35.64,17.93
							c-3.87,2.06-7.84,4.19-11.48,6.27c-6.48,3.69-14.73,1.42-18.42-5.06C3.74,296.62,7.4,287.02,15.33,284.39L15.33,284.39z"/>
					</g>
				</g>
			</g>
		</g>
	</g>
	<g>
		<g>
			<path class="st1" d="M5.32,285.28c-1.59,0-3.17-0.71-4.21-2.07c-1.79-2.33-1.36-5.66,0.96-7.46c1.8-1.39,32.38-24.81,60.87-37.96
				c-15.29,1.13-33.84,5.56-49.7,18.18c-2.3,1.83-5.64,1.45-7.47-0.85c-1.83-2.3-1.45-5.64,0.85-7.47
				c37.96-30.22,87.41-18.97,89.5-18.47c2.67,0.63,4.42,3.19,4.04,5.9c-0.38,2.72-2.78,4.69-5.5,4.58
				c-21.99-0.99-69.62,31.8-86.1,44.5C7.59,284.92,6.45,285.28,5.32,285.28z"/>
		</g>
		<g>
			<path class="st1" d="M506.69,330.07c-1.43,0-2.85-0.57-3.89-1.7c-51.88-55.81-139.77-72.33-140.65-72.49
				c-2.89-0.53-4.8-3.29-4.28-6.18s3.29-4.8,6.18-4.28c3.74,0.68,92.22,17.27,146.54,75.72c2,2.15,1.88,5.51-0.27,7.51
				C509.28,329.6,507.98,330.07,506.69,330.07z"/>
		</g>
		<g>
			<path class="st1" d="M487.41,372.95c-2.05,0-4-1.19-4.87-3.18c-25.24-57.5-107.69-99.03-108.52-99.44
				c-2.63-1.31-3.7-4.5-2.39-7.13s4.5-3.7,7.12-2.39c3.53,1.75,86.73,43.64,113.53,104.69c1.18,2.69-0.04,5.82-2.73,7
				C488.85,372.81,488.13,372.95,487.41,372.95z"/>
		</g>
		<g>
			<path class="st1" d="M184.87,205.26c-0.22-1.45-0.04-2.92,0.45-4.3c0.99-2.78,3.65-6.92,10.83-7.95
				c9.59-1.38,37.82-2.9,37.46,8.14c-0.32,9.77-15.97,18.87-22.3,20.22C205.26,222.67,186.58,216.8,184.87,205.26z"/>
		</g>
		<g>
			<path class="st1" d="M349.17,207.43c-0.1,0-0.2,0-0.31,0l-56.2-1.6c-5.87-0.17-10.49-5.06-10.32-10.93
				c0.17-5.87,4.98-10.51,10.93-10.32l56.2,1.6c5.87,0.17,10.49,5.06,10.32,10.93C359.63,202.86,354.9,207.43,349.17,207.43z"/>
		</g>
		<g>
			<path class="st1" d="M163.59,197.89c-0.13,0-0.26,0-0.39-0.01l-44.94-1.6c-5.87-0.21-10.46-5.14-10.25-11
				c0.21-5.87,5.17-10.47,11-10.25l44.94,1.6c5.87,0.21,10.46,5.14,10.25,11C174.01,193.38,169.29,197.89,163.59,197.89z"/>
		</g>
	</g>
</g>
</svg>
