<?xml version="1.0" encoding="utf-8"?>
<!-- Generator: Adobe Illustrator 27.0.0, SVG Export Plug-In . SVG Version: 6.00 Build 0)  -->
<svg version="1.1" id="_x30_11" xmlns="http://www.w3.org/2000/svg" xmlns:xlink="http://www.w3.org/1999/xlink" x="0px" y="0px"
	 viewBox="0 0 302.08 221.56" style="enable-background:new 0 0 302.08 221.56;" xml:space="preserve">
<style type="text/css">
	.st0{fill:#FFFFFF;}
	.st1{fill:#C4965B;}
	.st2{fill:#663A17;}
	.st3{fill:#A26E3E;}
</style>
<g>
	<g>
		<path class="st0" d="M300.48,148.36c-3.56-14.38-20.66-11.87-36.36-6.08c-6.56-38.41-47.17-77.93-104.19-96.79
			C88.32,21.81,18.01,39.69,2.89,85.42s30.67,102,102.28,125.68c55.87,18.48,110.94,11.65,139.64-13.95
			c3.97,6.31,9.69,11,17.96,11.69C291.5,211.22,307.36,176.2,300.48,148.36z"/>
	</g>
	<g>
		
			<ellipse transform="matrix(0.314 -0.9494 0.9494 0.314 -30.2594 213.6563)" class="st1" cx="132.72" cy="127.77" rx="74.05" ry="121.56"/>
	</g>
	<g>
		<path class="st2" d="M54.49,173.23l-2.93-10.22l1.47,5.11l-1.5-5.1c2.13-0.64,51.99-16.77,44.82-114.85l10.6-0.77
			C114.79,154.65,56.96,172.52,54.49,173.23z"/>
	</g>
	<g>
		<path class="st1" d="M249.04,162.83c0,0,34.84-21.42,39-4.59s-5.43,38-22.8,36.56C247.86,193.34,249.04,162.83,249.04,162.83z"/>
		<path class="st2" d="M266.88,200.17c-0.69,0-1.39-0.03-2.1-0.09c-17.71-1.48-21.58-24.24-21.07-37.46l0.11-2.84l2.42-1.49
			c4.34-2.67,26.65-15.74,39.15-10.62c4,1.64,6.7,4.85,7.8,9.28c2.92,11.8-0.07,25.53-7.43,34.17
			C280.75,197.01,274.11,200.17,266.88,200.17z M254.4,165.84c0.28,6.66,1.93,22.87,11.27,23.65c4.66,0.38,8.7-1.38,12-5.26
			c5.16-6.06,7.3-16.23,5.2-24.72c-0.35-1.42-0.93-1.76-1.5-2C276.35,155.46,263.25,160.86,254.4,165.84z"/>
	</g>
	<g>
		<path class="st3" d="M91.77,196.86l-9.32-14.23c21.85-14.3,36.4-30.67,45.8-51.51c10.87-24.1,12.9-49.48,6.02-75.42l16.44-4.36
			c7.9,29.82,5.56,59.02-6.96,86.78C133.12,161.7,116.12,180.92,91.77,196.86z"/>
	</g>
	<g>
		<path class="st3" d="M205.13,179.65c-2.25,0-4.49-0.88-6.16-2.64c-3.24-3.4-3.11-8.79,0.3-12.03
			c12.84-12.22,15.24-30.2,18.37-60.94c0.48-4.67,4.65-8.09,9.32-7.6c4.67,0.48,8.08,4.65,7.6,9.32
			c-3.1,30.38-5.55,54.38-23.57,71.53C209.35,178.88,207.23,179.65,205.13,179.65z"/>
	</g>
	<g>
		<path class="st3" d="M154.01,187.82c-2.13,0-4.27-0.8-5.92-2.4c-3.37-3.27-3.46-8.65-0.18-12.03
			c8.12-8.38,18.69-24.53,24.57-37.57c11.52-25.53,7.77-42.74,5.03-55.3c-0.44-2.03-0.85-3.91-1.16-5.65
			c-0.84-4.62,2.23-9.05,6.86-9.88c4.64-0.84,9.05,2.23,9.88,6.86c0.28,1.55,0.65,3.24,1.05,5.05c2.87,13.19,7.68,35.27-6.14,65.92
			c-6.8,15.07-18.25,32.51-27.86,42.42C158.45,186.96,156.23,187.82,154.01,187.82z"/>
	</g>
	<g>
		<path class="st2" d="M166.79,212.98c-18.6,0-38.74-3.17-58.99-9.87c-31.74-10.5-59.15-27.96-77.18-49.19
			c-18.65-21.96-25.17-45.4-18.36-66c6.82-20.61,26.03-35.54,54.09-42.05c27.13-6.29,59.55-3.97,91.29,6.53s59.15,27.96,77.18,49.19
			c18.65,21.96,25.17,45.4,18.36,66C243.63,196.48,209.2,212.98,166.79,212.98z M98.24,53.03c-10.33,0-20.25,1.06-29.49,3.2
			c-24.31,5.64-40.79,18.08-46.4,35.03s0.21,36.76,16.37,55.78c16.78,19.76,42.5,36.08,72.42,45.98
			c60.85,20.13,120.05,7.22,131.95-28.76c5.61-16.95-0.21-36.76-16.37-55.78c-16.78-19.76-42.5-36.08-72.42-45.98
			C135.33,56.22,116.16,53.03,98.24,53.03z"/>
	</g>
	<g>
		<path class="st2" d="M77.54,103.14c-22.71,0-39.25-4.97-39.95-5.19c-2.81-0.86-4.39-3.83-3.53-6.64s3.83-4.39,6.64-3.53
			c0.29,0.09,15.9,4.72,36.84,4.72c0.05,0,0.03,0,0.15,0c2.93,0,5.31,2.38,5.32,5.31c0,2.94-2.37,5.32-5.31,5.32
			C77.64,103.14,77.59,103.14,77.54,103.14z"/>
	</g>
</g>
</svg>
