<?xml version="1.0" encoding="utf-8"?>
<!-- Generator: Adobe Illustrator 27.0.0, SVG Export Plug-In . SVG Version: 6.00 Build 0)  -->
<svg version="1.1" id="_x31_00" xmlns="http://www.w3.org/2000/svg" xmlns:xlink="http://www.w3.org/1999/xlink" x="0px" y="0px"
	 viewBox="0 0 302.08 221.56" style="enable-background:new 0 0 302.08 221.56;" xml:space="preserve">
<style type="text/css">
	.st0{fill:#FFFFFF;}
	.st1{fill:#C4965B;}
	.st2{fill:#663A17;}
	.st3{fill:#8B5235;}
	.st4{fill:#541B07;}
	.st5{clip-path:url(#SVGID_00000147932619848531230870000014369463317518730940_);}
	.st6{fill:#793E20;}
	.st7{clip-path:url(#SVGID_00000173858538515836742960000018248792537035136918_);}
	.st8{clip-path:url(#SVGID_00000145045742563256765900000002539777546239662494_);}
	.st9{clip-path:url(#SVGID_00000119111455455029414120000008715465333741100981_);}
</style>
<g>
	<g>
		<g>
			<path class="st0" d="M300.48,148.36c-3.56-14.38-20.66-11.87-36.36-6.08c-6.56-38.41-47.17-77.93-104.19-96.79
				C88.32,21.81,18.01,39.69,2.89,85.42s30.67,102,102.28,125.68c55.87,18.48,110.94,11.65,139.64-13.95
				c3.97,6.31,9.69,11,17.96,11.69C291.5,211.22,307.36,176.2,300.48,148.36z"/>
		</g>
		<g>
			
				<ellipse transform="matrix(0.314 -0.9494 0.9494 0.314 -30.2596 213.6563)" class="st1" cx="132.72" cy="127.77" rx="74.05" ry="121.56"/>
			<path class="st2" d="M166.79,212.98c-18.6,0-38.74-3.17-58.99-9.87C41.38,181.15-1.48,129.47,12.26,87.92
				C26.01,46.37,91.22,30.44,157.64,52.4c66.42,21.97,109.28,73.64,95.54,115.19l0,0C243.63,196.48,209.2,212.98,166.79,212.98z
				 M97.87,53C60.4,53,30.45,66.79,22.36,91.26c-11.9,35.98,27.93,81.63,88.78,101.76s120.04,7.22,131.95-28.76l0,0
				c11.9-35.98-27.93-81.63-88.78-101.76C134.83,56.06,115.52,53,97.87,53z"/>
		</g>
		<g>
			<path class="st2" d="M54.49,173.23l-2.97-10.21c2.13-0.64,51.99-16.77,44.82-114.85l10.6-0.78
				C114.79,154.65,56.96,172.52,54.49,173.23z"/>
		</g>
		<g>
			<path class="st1" d="M249.04,162.83c0,0,34.84-21.42,39-4.59s-5.43,38-22.8,36.56C247.86,193.34,249.04,162.83,249.04,162.83z"/>
			<path class="st2" d="M266.88,200.17c-0.69,0-1.39-0.03-2.09-0.09c-17.71-1.47-21.58-24.24-21.07-37.46l0.11-2.84l2.42-1.49
				c4.34-2.67,26.65-15.74,39.15-10.62c4,1.64,6.7,4.85,7.79,9.28c2.92,11.8-0.07,25.53-7.43,34.17
				C280.75,197.01,274.11,200.17,266.88,200.17z M254.4,165.84c0.28,6.66,1.92,22.87,11.27,23.65c4.66,0.39,8.7-1.38,12-5.26
				c5.16-6.06,7.3-16.23,5.2-24.72c-0.35-1.42-0.93-1.77-1.5-2C276.34,155.46,263.24,160.85,254.4,165.84z"/>
		</g>
		<g>
			<path class="st1" d="M124.98,146.83c0,0,27.82-4.12,12.28-23.93c0,0,27.62-6.11,7.26-31.42"/>
			<path class="st2" d="M124.98,151.08c-2.07,0-3.89-1.52-4.2-3.63c-0.34-2.32,1.26-4.48,3.58-4.83l0,0
				c2.83-0.43,11.29-2.66,13.05-7.09c1.21-3.06-1.22-7.14-3.48-10.02c-0.9-1.15-1.15-2.68-0.66-4.06c0.49-1.37,1.66-2.4,3.09-2.72
				c2.46-0.56,9.26-3.11,10.97-8.03c1.8-5.18-2.33-11.87-6.11-16.57c-1.47-1.83-1.18-4.51,0.65-5.98c1.83-1.47,4.51-1.18,5.98,0.65
				c7.48,9.3,10,17.62,7.5,24.74c-2.13,6.05-7.39,9.59-11.54,11.51c2.65,4.91,3.16,9.48,1.5,13.63
				c-3.88,9.74-18.09,12.1-19.69,12.34C125.39,151.07,125.18,151.08,124.98,151.08z"/>
		</g>
		<g>
			<path class="st1" d="M179,157.96c0,0,20-0.45,6.61-16.47c0,0,20.18-4.61,3.8-19.18"/>
			<path class="st2" d="M179,162.21c-2.3,0-4.2-1.84-4.25-4.16c-0.05-2.34,1.8-4.29,4.15-4.35c2.78-0.08,6.43-1.14,6.99-2.38
				c0.31-0.69-0.08-2.97-3.54-7.11c-0.95-1.14-1.24-2.68-0.77-4.08c0.47-1.4,1.64-2.46,3.08-2.79c2.56-0.6,6.37-2.45,6.85-4.33
				c0.15-0.6,0.25-2.93-4.93-7.53c-1.75-1.56-1.91-4.25-0.35-6c1.56-1.76,4.25-1.91,6-0.35c6.28,5.58,8.81,10.97,7.51,16.01
				c-1.06,4.13-4.43,6.77-7.52,8.38c2.42,4.25,2.89,8.04,1.4,11.33c-3.14,6.91-13.38,7.34-14.53,7.37
				C179.06,162.21,179.03,162.21,179,162.21z"/>
		</g>
		<g>
			<g>
				<circle class="st0" cx="57.65" cy="93.72" r="21.83"/>
				<path class="st2" d="M57.65,117.68c-13.21,0-23.96-10.75-23.96-23.96s10.75-23.96,23.96-23.96s23.96,10.75,23.96,23.96
					S70.86,117.68,57.65,117.68z M57.65,74.02c-10.86,0-19.7,8.84-19.7,19.7s8.84,19.7,19.7,19.7s19.7-8.84,19.7-19.7
					S68.52,74.02,57.65,74.02z"/>
			</g>
			<g>
				<circle class="st2" cx="57.16" cy="91.62" r="14.34"/>
			</g>
			<g>
				<circle class="st0" cx="63.85" cy="89.26" r="4.09"/>
			</g>
		</g>
	</g>
	<g>
		<g>
			<path class="st3" d="M98.23,34.73c0,0,23.31-38.84,64.27-27.28s31.2,59.96,31.2,59.96"/>
			<path class="st4" d="M198.92,68.47l-10.42-2.11c0.35-1.77,8.24-43.72-27.43-53.79c-36.47-10.3-57.41,23.46-58.28,24.9L93.68,32
				c0.25-0.42,25.91-42.18,70.28-29.66C200.11,12.55,202.63,50.06,198.92,68.47z"/>
		</g>
		<g>
			<path class="st3" d="M101.83,34.5c0,0-17.89-0.41-20.37,13.16s6.12,11.4,14.15,11.83s57.45,3.95,77.93,24.26
				s29.91-0.11,24.37-10.95S153.52,34.45,101.83,34.5z"/>
			<path class="st4" d="M189.2,97.69c-4.88,0-11.43-2.26-19.4-10.17C150.4,68.29,100.9,65.1,95.32,64.8
				c-1.05-0.06-2.12-0.06-3.16-0.07c-4.79-0.04-10.23-0.08-13.78-4.37c-2.56-3.09-3.26-7.56-2.15-13.65
				c2.6-14.22,17.9-17.69,25.65-17.53c0.02,0,0.05,0,0.08,0c51.52,0,93.53,27.2,100.68,41.19c4.24,8.29,2,19.55-4.88,24.58
				C196.15,96.13,193.25,97.69,189.2,97.69z M101.6,39.81c-1.44,0-13.35,0.26-14.91,8.81c-0.71,3.88-0.11,4.97-0.1,4.98
				c0.65,0.46,3.78,0.48,5.65,0.5c1.21,0.01,2.43,0.02,3.65,0.09c9.78,0.53,59.66,4.24,81.39,25.79c6.01,5.96,11.45,8.41,14.21,6.4
				c2.67-1.95,3.52-7.58,1.69-11.16c-4.22-8.25-40.9-35.4-91.21-35.4c-0.05,0-0.08,0-0.13,0h-0.11
				C101.7,39.81,101.66,39.81,101.6,39.81z"/>
		</g>
		<g>
			<g>
				<defs>
					<path id="SVGID_1_" d="M101.34,39.79c0,0-12.93-0.79-14.52,9.46c-0.97,6.24,1.66,4.7,9.68,5.13s58.59,3.31,78.78,23.91
						c18.15,18.53,21.36,2.35,17.71-3.66C183.54,59.07,134.98,37.71,101.34,39.79z"/>
				</defs>
				<clipPath id="SVGID_00000031912023516802250090000004960314613612743824_">
					<use xlink:href="#SVGID_1_"  style="overflow:visible;"/>
				</clipPath>
				<g style="clip-path:url(#SVGID_00000031912023516802250090000004960314613612743824_);">
					<path class="st6" d="M92.46,60.7c-2.55-12.25,9.06-27.66,10.39-29.38l8.4,6.51c-3.87,5-9.56,15.05-8.38,20.69L92.46,60.7z"/>
				</g>
			</g>
			<g>
				<defs>
					<path id="SVGID_00000057829134974554094530000001314041128048251831_" d="M101.34,39.79c0,0-12.93-0.79-14.52,9.46
						c-0.97,6.24,1.66,4.7,9.68,5.13s58.59,3.31,78.78,23.91c18.15,18.53,21.36,2.35,17.71-3.66
						C183.54,59.07,134.98,37.71,101.34,39.79z"/>
				</defs>
				<clipPath id="SVGID_00000022540085398517542830000014853218311856542113_">
					<use xlink:href="#SVGID_00000057829134974554094530000001314041128048251831_"  style="overflow:visible;"/>
				</clipPath>
				<g style="clip-path:url(#SVGID_00000022540085398517542830000014853218311856542113_);">
					<path class="st6" d="M126.55,62.49l-10.63-0.03c0.02-9.02,8.44-25.49,9.4-27.33l9.44,4.9
						C131.59,46.13,126.56,57.62,126.55,62.49z"/>
				</g>
			</g>
			<g>
				<defs>
					<path id="SVGID_00000011751518526331970040000003516417391913359785_" d="M101.34,39.79c0,0-12.93-0.79-14.52,9.46
						c-0.97,6.24,1.66,4.7,9.68,5.13s58.59,3.31,78.78,23.91c18.15,18.53,21.36,2.35,17.71-3.66
						C183.54,59.07,134.98,37.71,101.34,39.79z"/>
				</defs>
				<clipPath id="SVGID_00000072238250384605060730000017700406791808853391_">
					<use xlink:href="#SVGID_00000011751518526331970040000003516417391913359785_"  style="overflow:visible;"/>
				</clipPath>
				<g style="clip-path:url(#SVGID_00000072238250384605060730000017700406791808853391_);">
					<path class="st6" d="M158.51,75.7l-7.37-7.66c1.74-1.85,3.89-11.98,4.59-21.67l10.6,0.76
						C165.84,53.92,164.11,70.31,158.51,75.7z"/>
				</g>
			</g>
			<g>
				<defs>
					<path id="SVGID_00000152972620312026648420000008831824174476766377_" d="M101.34,39.79c0,0-12.93-0.79-14.52,9.46
						c-0.97,6.24,1.66,4.7,9.68,5.13s58.59,3.31,78.78,23.91c18.15,18.53,21.36,2.35,17.71-3.66
						C183.54,59.07,134.98,37.71,101.34,39.79z"/>
				</defs>
				<clipPath id="SVGID_00000051363704275623000800000008536797199605035179_">
					<use xlink:href="#SVGID_00000152972620312026648420000008831824174476766377_"  style="overflow:visible;"/>
				</clipPath>
				<g style="clip-path:url(#SVGID_00000051363704275623000800000008536797199605035179_);">
					<path class="st6" d="M176.93,89.79l-4.33-9.71c3.95-1.76,4.69-13.92,3.7-21.65l10.54-1.37
						C187.43,61.53,189.69,84.11,176.93,89.79z"/>
				</g>
			</g>
		</g>
	</g>
</g>
</svg>
