<?xml version="1.0" encoding="utf-8"?>
<!-- Generator: Adobe Illustrator 27.0.0, SVG Export Plug-In . SVG Version: 6.00 Build 0)  -->
<svg version="1.1" id="_x31_01" xmlns="http://www.w3.org/2000/svg" xmlns:xlink="http://www.w3.org/1999/xlink" x="0px" y="0px"
	 viewBox="0 0 512 438.28" style="enable-background:new 0 0 512 438.28;" xml:space="preserve">
<style type="text/css">
	.st0{fill:#AE8253;}
	.st1{fill:#663A17;}
	.st2{fill:#CDA075;}
	.st3{fill:#EED0AE;}
	.st4{fill:#FFFFFF;}
	.st5{clip-path:url(#SVGID_00000011005877962004555430000016509767312721899427_);}
	.st6{fill:#A26E3E;}
	.st7{clip-path:url(#SVGID_00000097471385482835690210000005340021192261420934_);}
	.st8{clip-path:url(#SVGID_00000102505415198846235170000011551563957049373581_);}
	.st9{clip-path:url(#SVGID_00000091698600387431672140000002485350661119468714_);}
	.st10{clip-path:url(#SVGID_00000122699770550019332560000002016266619355485881_);}
	.st11{clip-path:url(#SVGID_00000149378711190575094330000009871504128710544777_);}
	.st12{clip-path:url(#SVGID_00000183956026248173014450000015272833847424858301_);}
	.st13{clip-path:url(#SVGID_00000086685835591109631350000012264451113238109876_);}
	.st14{fill:#8B5235;}
	.st15{fill:#541B07;}
	.st16{clip-path:url(#SVGID_00000091730694787891693090000015703821999672510849_);}
	.st17{fill:#793E20;}
	.st18{clip-path:url(#SVGID_00000109737454166596810110000010378756851824221590_);}
	.st19{clip-path:url(#SVGID_00000147192779161265692550000011437514975354084030_);}
	.st20{clip-path:url(#SVGID_00000124120748305316517240000016286817719706438806_);}
</style>
<g>
	<g>
		<g>
			<path class="st0" d="M100.13,166.54c0,0-13.92-61.76,28.79-134.87s114.91,27.74,162.15,40.85"/>
			<path class="st1" d="M100.12,171.86c-2.43,0-4.62-1.68-5.18-4.14c-0.59-2.61-13.88-64.65,29.38-138.72
				c9.26-15.86,20.8-25.31,34.28-28.09c27.35-5.64,56.96,16.17,85.6,37.28c17.71,13.06,34.45,25.39,48.29,29.23
				c2.83,0.78,4.49,3.71,3.7,6.55c-0.78,2.83-3.72,4.48-6.54,3.7c-15.73-4.37-33.23-17.26-51.75-30.91
				c-26.76-19.72-54.43-40.11-77.14-35.42c-10.55,2.18-19.46,9.71-27.25,23.04c-41.04,70.26-28.32,130.43-28.19,131.03
				c0.64,2.86-1.16,5.7-4.03,6.34C100.9,171.82,100.51,171.86,100.12,171.86z"/>
		</g>
		<g>
			<path class="st0" d="M465.89,214.71c0,0,22.79-73.36,12.29-151.54s-158.87,5.75-209.91,7.58"/>
			<path class="st1" d="M465.89,220.02c-0.52,0-1.05-0.08-1.58-0.24c-2.8-0.87-4.37-3.85-3.5-6.65
				c0.22-0.72,22.31-73.22,12.1-149.26c-1.45-10.76-5.72-18.23-13.07-22.83c-24.46-15.31-79.67,2.89-124.03,17.53
				c-27.52,9.07-51.28,16.91-67.35,17.49c-2.99,0.08-5.4-2.19-5.5-5.12s2.19-5.4,5.12-5.5c14.56-0.52,38.77-8.51,64.41-16.96
				c48.9-16.13,104.32-34.41,133-16.44c10.05,6.29,16.1,16.53,17.96,30.42c10.53,78.44-11.54,150.79-12.49,153.83
				C470.26,218.56,468.16,220.02,465.89,220.02z"/>
		</g>
		<g>
			<path class="st2" d="M79.69,237.07c0,0-39.63,23.89-37.19,68.13s21.63,87.32,119.71,116.63c98.08,29.32,230.91-1.45,281.22-70.21
				s45.6-199.79-100.98-264.21S71.55,160.52,79.69,237.07z"/>
		</g>
		<g>
			<path class="st3" d="M343.68,311.04c0,56.82-42.91,95.41-112.38,95.41S94.9,359.57,94.9,302.76s44.83-98.81,114.3-98.81
				S343.68,254.22,343.68,311.04z"/>
			<path class="st1" d="M231.3,411.77c-75.49,0-141.72-50.94-141.72-109.01c0-61.31,49.19-104.12,119.61-104.12
				c73.17,0,139.8,53.57,139.8,112.4C348.99,372.23,302.8,411.77,231.3,411.77z M209.19,209.27c-64.17,0-108.98,38.44-108.98,93.49
				c0,51.49,62.48,98.38,131.09,98.38c65.04,0,107.06-35.37,107.06-90.1C338.36,257.78,276.8,209.27,209.19,209.27z"/>
		</g>
		<g>
			<g>
				<path class="st1" d="M5.32,285.28c-1.59,0-3.17-0.71-4.21-2.07c-1.79-2.33-1.36-5.66,0.96-7.46
					c1.8-1.39,32.37-24.81,60.87-37.96c-15.29,1.13-33.84,5.56-49.7,18.18c-2.3,1.83-5.64,1.45-7.47-0.85
					c-1.83-2.3-1.45-5.64,0.85-7.47c37.96-30.22,87.41-18.97,89.5-18.47c2.67,0.63,4.42,3.19,4.04,5.91s-2.78,4.64-5.5,4.58
					c-22.06-1.04-69.61,31.8-86.1,44.5C7.59,284.92,6.45,285.28,5.32,285.28z"/>
			</g>
			<g>
				<path class="st1" d="M506.69,330.07c-1.43,0-2.85-0.57-3.89-1.7c-51.88-55.81-139.77-72.34-140.65-72.5
					c-2.89-0.53-4.8-3.29-4.28-6.18s3.29-4.8,6.18-4.28c3.74,0.68,92.22,17.28,146.54,75.72c2,2.15,1.88,5.51-0.27,7.51
					C509.28,329.6,507.98,330.07,506.69,330.07z"/>
			</g>
			<g>
				<path class="st1" d="M487.41,372.96c-2.05,0-4-1.19-4.87-3.18c-25.24-57.5-107.69-99.03-108.52-99.44
					c-2.63-1.31-3.7-4.5-2.39-7.12c1.31-2.63,4.49-3.7,7.12-2.4c3.53,1.75,86.73,43.64,113.53,104.69c1.18,2.69-0.04,5.82-2.73,7
					C488.85,372.81,488.13,372.96,487.41,372.96z"/>
			</g>
			<g>
				<path class="st1" d="M184.87,205.26c-0.22-1.45-0.04-2.92,0.45-4.3c0.99-2.78,3.65-6.92,10.83-7.95
					c9.59-1.38,37.82-2.9,37.46,8.14c-0.32,9.77-15.97,18.87-22.3,20.22C205.26,222.67,186.58,216.8,184.87,205.26z"/>
			</g>
			<g>
				<g>
					<g>
						<g>
							<circle class="st4" cx="311.77" cy="184.66" r="35.29"/>
							<path class="st1" d="M311.77,223.14c-21.22,0-38.48-17.26-38.48-38.48s17.26-38.48,38.48-38.48s38.48,17.26,38.48,38.48
								S332.98,223.14,311.77,223.14z M311.77,152.56c-17.7,0-32.1,14.4-32.1,32.1s14.4,32.1,32.1,32.1s32.1-14.4,32.1-32.1
								S329.47,152.56,311.77,152.56z"/>
						</g>
						<g>
							<circle class="st1" cx="311.5" cy="183.79" r="24.79"/>
						</g>
						<g>
							<circle class="st4" cx="303.66" cy="172.13" r="7.84"/>
						</g>
					</g>
					<g>
						<g>
							<ellipse class="st4" cx="146.24" cy="175.19" rx="29.99" ry="33.39"/>
							<path class="st1" d="M146.24,211.78c-18.3,0-33.18-16.41-33.18-36.58s14.89-36.58,33.18-36.58
								c18.3,0,33.18,16.41,33.18,36.58C179.43,195.37,164.54,211.78,146.24,211.78z M146.24,144.99c-14.78,0-26.8,13.55-26.8,30.21
								c0,16.65,12.02,30.2,26.8,30.2s26.8-13.55,26.8-30.2C173.05,158.54,161.02,144.99,146.24,144.99z"/>
						</g>
						<g>
							<ellipse class="st1" cx="147.91" cy="174.28" rx="20.28" ry="22.99"/>
						</g>
						<g>
							<circle class="st4" cx="156.13" cy="165.93" r="6.85"/>
						</g>
					</g>
				</g>
			</g>
		</g>
		<g>
			<g>
				<defs>
					<path id="SVGID_1_" d="M340.23,91.72C482.97,154.45,487.55,282.04,438.56,349s-178.34,96.92-273.85,68.37
						S50.52,346.89,48.14,303.81c-2.38-43.09,36.21-66.35,36.21-66.35C76.42,162.92,197.49,28.99,340.23,91.72z"/>
				</defs>
				<clipPath id="SVGID_00000052068191950258689880000011020059666041914800_">
					<use xlink:href="#SVGID_1_"  style="overflow:visible;"/>
				</clipPath>
				<g style="clip-path:url(#SVGID_00000052068191950258689880000011020059666041914800_);">
					<path class="st6" d="M244.5,78.69c-10.6,19.46-21.46,40.77-24.2,62.88c-0.77,10.72-16.17,10.76-17.01,0.09
						c-0.58-26.22,7.95-50.73,17.06-74.83C228.39,49.42,253.37,61.66,244.5,78.69L244.5,78.69z"/>
				</g>
			</g>
			<g>
				<defs>
					<path id="SVGID_00000182516777110166793130000000110234045677623230_" d="M340.23,91.72
						C482.97,154.45,487.55,282.04,438.56,349s-178.34,96.92-273.85,68.37S50.52,346.89,48.14,303.81
						c-2.38-43.09,36.21-66.35,36.21-66.35C76.42,162.92,197.49,28.99,340.23,91.72z"/>
				</defs>
				<clipPath id="SVGID_00000132781304451703553410000004800556281130125212_">
					<use xlink:href="#SVGID_00000182516777110166793130000000110234045677623230_"  style="overflow:visible;"/>
				</clipPath>
				<g style="clip-path:url(#SVGID_00000132781304451703553410000004800556281130125212_);">
					<path class="st6" d="M276.73,83.54c-10.6,19.46-21.46,40.77-24.2,62.88c-0.77,10.72-16.17,10.76-17.01,0.09
						c-0.58-26.22,7.95-50.73,17.06-74.83C260.62,54.28,285.6,66.52,276.73,83.54L276.73,83.54z"/>
				</g>
			</g>
			<g>
				<defs>
					<path id="SVGID_00000084494859113839429760000005312797743965440920_" d="M340.23,91.72
						C482.97,154.45,487.55,282.04,438.56,349s-178.34,96.92-273.85,68.37S50.52,346.89,48.14,303.81
						c-2.38-43.09,36.21-66.35,36.21-66.35C76.42,162.92,197.49,28.99,340.23,91.72z"/>
				</defs>
				<clipPath id="SVGID_00000103228831737165976330000008228050327714441609_">
					<use xlink:href="#SVGID_00000084494859113839429760000005312797743965440920_"  style="overflow:visible;"/>
				</clipPath>
				<g style="clip-path:url(#SVGID_00000103228831737165976330000008228050327714441609_);">
					<path class="st6" d="M314.32,85.69c-12.25,17.09-25.11,36.64-27.84,57.77c-1.23,10.42-16.21,10.05-16.96-0.37
						c-0.58-13.48,2.77-25.89,7-38.18c4.24-11.91,9.23-22.95,15.36-34.05C302.05,54.49,325.39,69.88,314.32,85.69L314.32,85.69z"/>
				</g>
			</g>
			<g>
				<defs>
					<path id="SVGID_00000175294254325812556610000012293595904798221987_" d="M340.23,91.72
						C482.97,154.45,487.55,282.04,438.56,349s-178.34,96.92-273.85,68.37S50.52,346.89,48.14,303.81
						c-2.38-43.09,36.21-66.35,36.21-66.35C76.42,162.92,197.49,28.99,340.23,91.72z"/>
				</defs>
				<clipPath id="SVGID_00000046301343679609746800000002819682035656453019_">
					<use xlink:href="#SVGID_00000175294254325812556610000012293595904798221987_"  style="overflow:visible;"/>
				</clipPath>
				<g style="clip-path:url(#SVGID_00000046301343679609746800000002819682035656453019_);">
					<path class="st6" d="M431.18,360.08c-5.95-14.67-16.31-27.76-28.74-37.64c-7.85-6.61,0.42-18.82,9.44-14.08
						c17.52,9.29,32.81,23.08,43.45,39.88C462.61,364.48,439.57,375.79,431.18,360.08L431.18,360.08z"/>
				</g>
			</g>
			<g>
				<defs>
					<path id="SVGID_00000043440062796582134710000010157890228938040749_" d="M340.23,91.72
						C482.97,154.45,487.55,282.04,438.56,349s-178.34,96.92-273.85,68.37S50.52,346.89,48.14,303.81
						c-2.38-43.09,36.21-66.35,36.21-66.35C76.42,162.92,197.49,28.99,340.23,91.72z"/>
				</defs>
				<clipPath id="SVGID_00000168106657653286747230000011491676857082629809_">
					<use xlink:href="#SVGID_00000043440062796582134710000010157890228938040749_"  style="overflow:visible;"/>
				</clipPath>
				<g style="clip-path:url(#SVGID_00000168106657653286747230000011491676857082629809_);">
					<path class="st6" d="M457.27,326.91c-8.56-13.54-19.99-25.28-32.53-35.23c-7.92-6.53,0.2-18.83,9.29-14.21
						c17.4,9.16,33.88,20.78,46.82,35.74c4.96,5.83,4.26,14.57-1.57,19.54C472.18,339.05,460.33,335.84,457.27,326.91L457.27,326.91
						z"/>
				</g>
			</g>
			<g>
				<defs>
					<path id="SVGID_00000006706439885217611040000007027707515175711151_" d="M340.23,91.72
						C482.97,154.45,487.55,282.04,438.56,349s-178.34,96.92-273.85,68.37S50.52,346.89,48.14,303.81
						c-2.38-43.09,36.21-66.35,36.21-66.35C76.42,162.92,197.49,28.99,340.23,91.72z"/>
				</defs>
				<clipPath id="SVGID_00000065056564527138484340000010886476822483649466_">
					<use xlink:href="#SVGID_00000006706439885217611040000007027707515175711151_"  style="overflow:visible;"/>
				</clipPath>
				<g style="clip-path:url(#SVGID_00000065056564527138484340000010886476822483649466_);">
					<path class="st6" d="M471.4,283.67c-17.8-15.73-37.2-30.77-58.72-40.97c-9.73-4.48-4.39-18.87,5.88-15.96
						c25.15,8.05,47.88,21.28,69.67,35.95C503.32,274.29,486.05,295.89,471.4,283.67L471.4,283.67z"/>
				</g>
			</g>
			<g>
				<defs>
					<path id="SVGID_00000099637501555186896790000001537155767964241538_" d="M340.23,91.72
						C482.97,154.45,487.55,282.04,438.56,349s-178.34,96.92-273.85,68.37S50.52,346.89,48.14,303.81
						c-2.38-43.09,36.21-66.35,36.21-66.35C76.42,162.92,197.49,28.99,340.23,91.72z"/>
				</defs>
				<clipPath id="SVGID_00000057843083841586038350000000129569637475869834_">
					<use xlink:href="#SVGID_00000099637501555186896790000001537155767964241538_"  style="overflow:visible;"/>
				</clipPath>
				<g style="clip-path:url(#SVGID_00000057843083841586038350000000129569637475869834_);">
					<path class="st6" d="M34.36,248.88c7.67-2.69,18.36-5.87,26.16-8.27c8.69-2.58,17.4-5.03,26.13-7.37
						c4.55-1.22,9.24,1.48,10.46,6.04c1.08,4.04-0.93,8.2-4.58,9.92c-11.58,5.51-24.24,11.92-35.64,17.93
						c-3.87,2.06-7.84,4.19-11.48,6.27c-6.48,3.69-14.73,1.42-18.42-5.06C22.77,261.11,26.43,251.5,34.36,248.88L34.36,248.88z"/>
				</g>
			</g>
			<g>
				<defs>
					<path id="SVGID_00000129907809202462854780000018250365612660977553_" d="M340.23,91.72
						C482.97,154.45,487.55,282.04,438.56,349s-178.34,96.92-273.85,68.37S50.52,346.89,48.14,303.81
						c-2.38-43.09,36.21-66.35,36.21-66.35C76.42,162.92,197.49,28.99,340.23,91.72z"/>
				</defs>
				<clipPath id="SVGID_00000054978047686847032320000016763841251721751478_">
					<use xlink:href="#SVGID_00000129907809202462854780000018250365612660977553_"  style="overflow:visible;"/>
				</clipPath>
				<g style="clip-path:url(#SVGID_00000054978047686847032320000016763841251721751478_);">
					<path class="st6" d="M15.33,284.39c7.67-2.69,18.36-5.87,26.16-8.27c8.69-2.58,17.4-5.03,26.13-7.37
						c4.55-1.22,9.24,1.48,10.46,6.04c1.08,4.04-0.93,8.2-4.58,9.92c-11.58,5.51-24.24,11.92-35.64,17.93
						c-3.87,2.06-7.84,4.19-11.48,6.27c-6.48,3.69-14.73,1.42-18.42-5.06C3.74,296.62,7.4,287.02,15.33,284.39L15.33,284.39z"/>
				</g>
			</g>
		</g>
		<g>
			<path class="st1" d="M242.37,438.28c-28.02,0-55.85-3.62-81.68-11.34C56.05,395.66,39.54,348,37.2,305.5
				c-2.22-40.3,27.45-64.46,36.94-71.12c-2.47-41.21,29.37-95.36,76.97-130.17c34.04-24.89,104.44-60.8,193.49-21.66
				c85.58,37.61,116.44,93.5,127.27,133.76c12.98,48.3,3.96,100.05-24.13,138.46C409.95,406.39,325.42,438.27,242.37,438.28z
				 M82.44,241.62c-0.56,0.34-36.85,22.99-34.63,63.29c2.25,40.76,17.85,82.52,115.92,111.83c98.56,29.46,227.25-2.44,275.41-68.26
				c26.21-35.82,34.6-84.2,22.45-129.42c-10.22-38.01-39.55-90.87-121.27-126.79c-84.17-37-150.74-3.03-182.94,20.51
				c-46,33.64-76.45,85.66-72.4,123.72C85.2,238.56,84.21,240.55,82.44,241.62z"/>
		</g>
	</g>
	<g>
		<g>
			<path class="st14" d="M219.28,60.57c0,0,27.8-63.77,92.48-54.27s59.39,85.14,59.39,85.14"/>
			<path class="st15" d="M376.46,91.8l-10.61-0.74c0.2-2.88,4.12-70.84-54.86-79.5c-59.79-8.79-85.76,48.69-86.84,51.14l-9.74-4.25
				c0.29-0.67,30.22-67.37,98.13-57.41C381.3,11.13,376.52,91,376.46,91.8z"/>
		</g>
		<g>
			<path class="st14" d="M224.71,59.5c0,0-27.33,2.92-28.41,24.08s11.58,16.15,23.89,15.21c12.31-0.93,88.28-5.37,123.49,21.51
				s45.53-6.1,34.94-21.51C368.04,83.39,303.43,49.18,224.71,59.5z"/>
			<path class="st15" d="M366.99,135.77c-6.55,0-15.3-2.67-26.54-11.24c-34.2-26.1-111.2-21.09-119.87-20.43
				c-1.66,0.12-3.33,0.33-4.97,0.53c-6.69,0.81-14.27,1.74-19.55-3.18c-3.91-3.65-5.53-9.41-5.08-18.14
				c1.04-20.28,22.06-27.89,33.09-29.09C306.93,43.4,372.18,80.03,383,95.78c7.35,10.7,6.35,26.6-2.18,34.72
				C378.56,132.66,374.06,135.77,366.99,135.77z M245.11,92.6c29.62,0,75.7,3.56,101.79,23.48c11.87,9.06,21.57,11.51,26.59,6.73
				c4.72-4.49,5.08-14.69,0.75-21c-8.59-12.5-69.69-47.41-148.84-37.04l-0.12,0.01c-1.01,0.11-22.84,2.77-23.68,19.07
				c-0.36,7.08,1.07,9.22,1.71,9.82c1.66,1.54,6.42,0.97,11.02,0.4c1.8-0.22,3.63-0.44,5.45-0.58
				C224.02,93.17,233.25,92.6,245.11,92.6z"/>
		</g>
		<g>
			<g>
				<defs>
					<path id="SVGID_00000033335888274136758290000001907844613138560434_" d="M224.71,64.52c0,0-23.06,2.27-23.25,20.49
						c-0.15,13.78,7.06,9.44,19.36,8.51c12.31-0.93,88.66-5.59,123.87,21.29s36.37-5.16,28.41-14.05
						C359.95,86.07,303.43,54.2,224.71,64.52z"/>
				</defs>
				<clipPath id="SVGID_00000097492072761023420910000011287109950480479935_">
					<use xlink:href="#SVGID_00000033335888274136758290000001907844613138560434_"  style="overflow:visible;"/>
				</clipPath>
				<g style="clip-path:url(#SVGID_00000097492072761023420910000011287109950480479935_);">
					<path class="st17" d="M218.33,100.32c-5.89-16.95,8.15-41.65,9.77-44.42l9.17,5.38c-3.71,6.34-12.54,25.09-8.9,35.55
						L218.33,100.32z"/>
				</g>
			</g>
			<g>
				<defs>
					<path id="SVGID_00000129905100593603637890000011099492541342203543_" d="M224.71,64.52c0,0-23.06,2.27-23.25,20.49
						c-0.15,13.78,7.06,9.44,19.36,8.51c12.31-0.93,88.66-5.59,123.87,21.29s36.37-5.16,28.41-14.05
						C359.95,86.07,303.43,54.2,224.71,64.52z"/>
				</defs>
				<clipPath id="SVGID_00000132073908713921098820000017062935668514196410_">
					<use xlink:href="#SVGID_00000129905100593603637890000011099492541342203543_"  style="overflow:visible;"/>
				</clipPath>
				<g style="clip-path:url(#SVGID_00000132073908713921098820000017062935668514196410_);">
					<path class="st17" d="M254.53,98.93c-1.67-13.08,7.67-39.22,8.74-42.16l9.99,3.64c-2.66,7.31-9.32,28.25-8.19,37.17
						L254.53,98.93z"/>
				</g>
			</g>
			<g>
				<defs>
					<path id="SVGID_00000119835159912778571430000013079963405253243027_" d="M224.71,64.52c0,0-23.06,2.27-23.25,20.49
						c-0.15,13.78,7.06,9.44,19.36,8.51c12.31-0.93,88.66-5.59,123.87,21.29s36.37-5.16,28.41-14.05
						C359.95,86.07,303.43,54.2,224.71,64.52z"/>
				</defs>
				<clipPath id="SVGID_00000077288953504893326300000006014331980347744687_">
					<use xlink:href="#SVGID_00000119835159912778571430000013079963405253243027_"  style="overflow:visible;"/>
				</clipPath>
				<g style="clip-path:url(#SVGID_00000077288953504893326300000006014331980347744687_);">
					<path class="st17" d="M316.97,109.23l-8.3-6.64c3.11-3.88,4.14-21.64,3.31-35.86l10.61-0.62
						C323.05,74.01,324.01,100.44,316.97,109.23z"/>
				</g>
			</g>
			<g>
				<defs>
					<path id="SVGID_00000065754716065735808150000011936887823738028961_" d="M224.71,64.52c0,0-23.06,2.27-23.25,20.49
						c-0.15,13.78,7.06,9.44,19.36,8.51c12.31-0.93,88.66-5.59,123.87,21.29s36.37-5.16,28.41-14.05
						C359.95,86.07,303.43,54.2,224.71,64.52z"/>
				</defs>
				<clipPath id="SVGID_00000169528338120253723850000014049267186608577981_">
					<use xlink:href="#SVGID_00000065754716065735808150000011936887823738028961_"  style="overflow:visible;"/>
				</clipPath>
				<g style="clip-path:url(#SVGID_00000169528338120253723850000014049267186608577981_);">
					<path class="st17" d="M348.56,126.4l-5.54-9.07c8.02-4.9,5.23-26.95,2.61-36.86l10.28-2.72
						C356.94,81.63,365.49,116.05,348.56,126.4z"/>
				</g>
			</g>
		</g>
	</g>
</g>
</svg>
