<?xml version="1.0" encoding="utf-8"?>
<!-- Generator: Adobe Illustrator 27.0.0, SVG Export Plug-In . SVG Version: 6.00 Build 0)  -->
<svg version="1.1" id="_x31_11" xmlns="http://www.w3.org/2000/svg" xmlns:xlink="http://www.w3.org/1999/xlink" x="0px" y="0px"
	 viewBox="0 0 512 438.28" style="enable-background:new 0 0 512 438.28;" xml:space="preserve">
<style type="text/css">
	.st0{fill:#AE8253;}
	.st1{fill:#663A17;}
	.st2{fill:#CDA075;}
	.st3{fill:#EED0AE;}
	.st4{clip-path:url(#SVGID_00000127024825096454697840000002883298463040772253_);}
	.st5{fill:#A26E3E;}
	.st6{clip-path:url(#SVGID_00000101806371843185725810000014333115965126908047_);}
	.st7{clip-path:url(#SVGID_00000152244481313708218090000004569955858165807001_);}
	.st8{clip-path:url(#SVGID_00000034090827588012991640000009683425695336578466_);}
	.st9{clip-path:url(#SVGID_00000183958654105795641280000013484750771232098960_);}
	.st10{clip-path:url(#SVGID_00000092454024380864404040000013513856759842560924_);}
	.st11{clip-path:url(#SVGID_00000016764650024760245690000013818400358844479647_);}
	.st12{clip-path:url(#SVGID_00000157290865874745786300000003075628872153634736_);}
	.st13{fill:#8B5235;}
	.st14{fill:#541B07;}
	.st15{clip-path:url(#SVGID_00000129884530168470783070000004095744820506981555_);}
	.st16{fill:#793E20;}
	.st17{clip-path:url(#SVGID_00000050656262303077354030000014034815190068469677_);}
	.st18{clip-path:url(#SVGID_00000116935752279885720870000005798342746602220464_);}
	.st19{clip-path:url(#SVGID_00000058563485907874102590000004339320045288399268_);}
</style>
<g>
	<g>
		<g>
			<path class="st0" d="M100.13,166.54c0,0-13.92-61.76,28.79-134.87s114.91,27.74,162.15,40.85"/>
			<path class="st1" d="M100.12,171.86c-2.43,0-4.62-1.68-5.18-4.14c-0.59-2.61-13.88-64.65,29.38-138.72
				c9.26-15.86,20.8-25.31,34.28-28.09c27.35-5.64,56.96,16.17,85.6,37.28c17.71,13.06,34.45,25.39,48.29,29.23
				c2.83,0.78,4.49,3.71,3.7,6.55c-0.78,2.83-3.72,4.48-6.54,3.7c-15.73-4.37-33.23-17.26-51.75-30.91
				c-26.76-19.72-54.43-40.11-77.14-35.42c-10.55,2.18-19.46,9.71-27.25,23.04c-41.04,70.26-28.32,130.43-28.19,131.03
				c0.64,2.86-1.16,5.7-4.03,6.34C100.9,171.82,100.5,171.86,100.12,171.86z"/>
		</g>
		<g>
			<path class="st0" d="M465.89,214.71c0,0,22.79-73.36,12.29-151.54s-158.87,5.75-209.91,7.58"/>
			<path class="st1" d="M465.89,220.02c-0.52,0-1.05-0.08-1.58-0.24c-2.8-0.87-4.37-3.85-3.5-6.65
				c0.22-0.72,22.31-73.22,12.1-149.26c-1.45-10.76-5.72-18.23-13.07-22.83c-24.46-15.31-79.67,2.9-124.03,17.53
				c-27.52,9.07-51.28,16.91-67.35,17.49c-2.99,0.08-5.4-2.19-5.5-5.12s2.19-5.4,5.12-5.5c14.56-0.52,38.77-8.51,64.41-16.96
				c48.9-16.13,104.31-34.41,133-16.44c10.05,6.29,16.1,16.53,17.96,30.42c10.53,78.44-11.54,150.79-12.49,153.83
				C470.26,218.56,468.16,220.02,465.89,220.02z"/>
		</g>
		<g>
			<path class="st2" d="M79.69,237.07c0,0-39.63,23.89-37.19,68.13c2.44,44.25,21.63,87.32,119.71,116.63s230.91-1.45,281.22-70.22
				s45.6-199.79-100.98-264.21S71.55,160.52,79.69,237.07z"/>
		</g>
		<g>
			<path class="st3" d="M343.68,311.04c0,56.82-42.91,95.41-112.38,95.41S94.9,359.57,94.9,302.76s44.83-98.81,114.3-98.81
				S343.68,254.22,343.68,311.04z"/>
			<path class="st1" d="M231.3,411.77c-75.5,0-141.72-50.94-141.72-109.01c0-61.31,49.19-104.12,119.62-104.12
				c73.17,0,139.8,53.57,139.8,112.4C348.99,372.24,302.8,411.77,231.3,411.77z M209.19,209.27c-64.17,0-108.98,38.44-108.98,93.49
				c0,51.49,62.48,98.38,131.09,98.38c65.04,0,107.06-35.37,107.06-90.1C338.36,257.78,276.8,209.27,209.19,209.27z"/>
		</g>
		<g>
			<path class="st1" d="M242.37,438.28c-28.02,0-55.85-3.62-81.68-11.34C56.05,395.66,39.54,348,37.2,305.5
				c-2.22-40.3,27.45-64.46,36.94-71.12c-2.47-41.21,29.37-95.36,76.97-130.17c34.04-24.89,104.44-60.8,193.49-21.66
				c85.58,37.61,116.45,93.5,127.26,133.77c12.98,48.3,3.96,100.05-24.13,138.45C409.95,406.39,325.42,438.27,242.37,438.28z
				 M82.44,241.62c-0.55,0.34-36.85,22.98-34.63,63.29c2.25,40.76,17.85,82.52,115.92,111.83c98.56,29.46,227.26-2.44,275.41-68.26
				c26.21-35.82,34.6-84.2,22.45-129.42c-10.22-38.01-39.55-90.87-121.28-126.79c-84.17-37-150.75-3.03-182.94,20.51
				c-46,33.63-76.45,85.66-72.4,123.72C85.2,238.56,84.21,240.55,82.44,241.62z"/>
		</g>
		<g>
			<g>
				<g>
					<g>
						<defs>
							<path id="SVGID_1_" d="M340.23,91.72C482.97,154.45,487.55,282.04,438.56,349s-178.34,96.92-273.85,68.37
								S50.52,346.89,48.14,303.81s36.21-66.35,36.21-66.35C76.42,162.92,197.49,28.99,340.23,91.72z"/>
						</defs>
						<clipPath id="SVGID_00000155831703657428002470000008044352447718382980_">
							<use xlink:href="#SVGID_1_"  style="overflow:visible;"/>
						</clipPath>
						<g style="clip-path:url(#SVGID_00000155831703657428002470000008044352447718382980_);">
							<path class="st5" d="M244.5,78.69c-10.6,19.46-21.46,40.77-24.2,62.88c-0.77,10.72-16.17,10.76-17.01,0.09
								c-0.58-26.22,7.95-50.73,17.06-74.83C228.39,49.42,253.37,61.66,244.5,78.69L244.5,78.69z"/>
						</g>
					</g>
					<g>
						<defs>
							<path id="SVGID_00000167382997989035922000000010215122796019132092_" d="M340.23,91.72
								C482.97,154.45,487.55,282.04,438.56,349s-178.34,96.92-273.85,68.37S50.52,346.89,48.14,303.81s36.21-66.35,36.21-66.35
								C76.42,162.92,197.49,28.99,340.23,91.72z"/>
						</defs>
						<clipPath id="SVGID_00000116934068515901796920000002029366310677934221_">
							<use xlink:href="#SVGID_00000167382997989035922000000010215122796019132092_"  style="overflow:visible;"/>
						</clipPath>
						<g style="clip-path:url(#SVGID_00000116934068515901796920000002029366310677934221_);">
							<path class="st5" d="M276.73,83.54c-10.6,19.46-21.46,40.77-24.2,62.88c-0.77,10.72-16.17,10.76-17.01,0.09
								c-0.58-26.22,7.95-50.73,17.06-74.83C260.62,54.28,285.6,66.52,276.73,83.54L276.73,83.54z"/>
						</g>
					</g>
					<g>
						<defs>
							<path id="SVGID_00000031191941859546655820000012160612956345298343_" d="M340.23,91.72
								C482.97,154.45,487.55,282.04,438.56,349s-178.34,96.92-273.85,68.37S50.52,346.89,48.14,303.81s36.21-66.35,36.21-66.35
								C76.42,162.92,197.49,28.99,340.23,91.72z"/>
						</defs>
						<clipPath id="SVGID_00000163766862087685246590000015628876907760030140_">
							<use xlink:href="#SVGID_00000031191941859546655820000012160612956345298343_"  style="overflow:visible;"/>
						</clipPath>
						<g style="clip-path:url(#SVGID_00000163766862087685246590000015628876907760030140_);">
							<path class="st5" d="M314.32,85.69c-12.25,17.09-25.11,36.64-27.84,57.77c-1.23,10.42-16.21,10.05-16.96-0.37
								c-0.58-13.48,2.77-25.89,7-38.18c4.24-11.91,9.23-22.95,15.36-34.05C302.05,54.49,325.39,69.88,314.32,85.69L314.32,85.69z"
								/>
						</g>
					</g>
					<g>
						<defs>
							<path id="SVGID_00000057843886983000211920000006873365497067175853_" d="M340.23,91.72
								C482.97,154.45,487.55,282.04,438.56,349s-178.34,96.92-273.85,68.37S50.52,346.89,48.14,303.81s36.21-66.35,36.21-66.35
								C76.42,162.92,197.49,28.99,340.23,91.72z"/>
						</defs>
						<clipPath id="SVGID_00000004527503205564925100000009532825520176840104_">
							<use xlink:href="#SVGID_00000057843886983000211920000006873365497067175853_"  style="overflow:visible;"/>
						</clipPath>
						<g style="clip-path:url(#SVGID_00000004527503205564925100000009532825520176840104_);">
							<path class="st5" d="M431.18,360.08c-5.95-14.68-16.31-27.76-28.74-37.64c-7.85-6.61,0.42-18.82,9.44-14.08
								c17.52,9.29,32.81,23.08,43.45,39.88C462.61,364.48,439.57,375.79,431.18,360.08L431.18,360.08z"/>
						</g>
					</g>
					<g>
						<defs>
							<path id="SVGID_00000070107137357693444620000013340787971457154187_" d="M340.23,91.72
								C482.97,154.45,487.55,282.04,438.56,349s-178.34,96.92-273.85,68.37S50.52,346.89,48.14,303.81s36.21-66.35,36.21-66.35
								C76.42,162.92,197.49,28.99,340.23,91.72z"/>
						</defs>
						<clipPath id="SVGID_00000091696125299555736940000002636543034765758866_">
							<use xlink:href="#SVGID_00000070107137357693444620000013340787971457154187_"  style="overflow:visible;"/>
						</clipPath>
						<g style="clip-path:url(#SVGID_00000091696125299555736940000002636543034765758866_);">
							<path class="st5" d="M457.27,326.91c-8.56-13.54-19.99-25.28-32.53-35.23c-7.92-6.53,0.2-18.83,9.29-14.21
								c17.4,9.16,33.88,20.78,46.82,35.74c4.96,5.83,4.26,14.57-1.57,19.54C472.18,339.05,460.33,335.84,457.27,326.91
								L457.27,326.91z"/>
						</g>
					</g>
					<g>
						<defs>
							<path id="SVGID_00000025403155161308322510000009631923761265514378_" d="M340.23,91.72
								C482.97,154.45,487.55,282.04,438.56,349s-178.34,96.92-273.85,68.37S50.52,346.89,48.14,303.81s36.21-66.35,36.21-66.35
								C76.42,162.92,197.49,28.99,340.23,91.72z"/>
						</defs>
						<clipPath id="SVGID_00000011740547107885900650000017113826202086976959_">
							<use xlink:href="#SVGID_00000025403155161308322510000009631923761265514378_"  style="overflow:visible;"/>
						</clipPath>
						<g style="clip-path:url(#SVGID_00000011740547107885900650000017113826202086976959_);">
							<path class="st5" d="M471.4,283.67c-17.8-15.73-37.2-30.77-58.73-40.97c-9.73-4.48-4.39-18.87,5.88-15.96
								c25.15,8.05,47.88,21.28,69.67,35.95C503.32,274.29,486.05,295.89,471.4,283.67L471.4,283.67z"/>
						</g>
					</g>
					<g>
						<defs>
							<path id="SVGID_00000111167999606371230350000015061248817268192442_" d="M340.23,91.72
								C482.97,154.45,487.55,282.04,438.56,349s-178.34,96.92-273.85,68.37S50.52,346.89,48.14,303.81s36.21-66.35,36.21-66.35
								C76.42,162.92,197.49,28.99,340.23,91.72z"/>
						</defs>
						<clipPath id="SVGID_00000026150022995788727930000010846464018921727404_">
							<use xlink:href="#SVGID_00000111167999606371230350000015061248817268192442_"  style="overflow:visible;"/>
						</clipPath>
						<g style="clip-path:url(#SVGID_00000026150022995788727930000010846464018921727404_);">
							<path class="st5" d="M34.36,248.88c7.67-2.69,18.36-5.87,26.16-8.27c8.69-2.58,17.4-5.03,26.13-7.37
								c4.55-1.22,9.24,1.48,10.46,6.04c1.08,4.04-0.93,8.2-4.58,9.92c-11.58,5.51-24.24,11.92-35.64,17.93
								c-3.87,2.06-7.84,4.19-11.48,6.27c-6.48,3.69-14.73,1.42-18.42-5.06C22.77,261.11,26.43,251.51,34.36,248.88L34.36,248.88z"
								/>
						</g>
					</g>
					<g>
						<defs>
							<path id="SVGID_00000025435920160307526820000002852828963868617877_" d="M340.23,91.72
								C482.97,154.45,487.55,282.04,438.56,349s-178.34,96.92-273.85,68.37S50.52,346.89,48.14,303.81s36.21-66.35,36.21-66.35
								C76.42,162.92,197.49,28.99,340.23,91.72z"/>
						</defs>
						<clipPath id="SVGID_00000047031933135764223100000010051332317557979042_">
							<use xlink:href="#SVGID_00000025435920160307526820000002852828963868617877_"  style="overflow:visible;"/>
						</clipPath>
						<g style="clip-path:url(#SVGID_00000047031933135764223100000010051332317557979042_);">
							<path class="st5" d="M15.33,284.39c7.67-2.69,18.36-5.87,26.16-8.27c8.69-2.58,17.4-5.03,26.13-7.37
								c4.55-1.22,9.24,1.48,10.46,6.04c1.08,4.04-0.93,8.2-4.58,9.92c-11.58,5.51-24.24,11.92-35.64,17.93
								c-3.87,2.06-7.84,4.19-11.48,6.27c-6.48,3.69-14.73,1.42-18.42-5.06C3.74,296.62,7.4,287.02,15.33,284.39L15.33,284.39z"/>
						</g>
					</g>
				</g>
			</g>
		</g>
		<g>
			<g>
				<path class="st1" d="M5.32,285.28c-1.59,0-3.17-0.71-4.21-2.07c-1.79-2.33-1.36-5.66,0.96-7.46
					c1.8-1.39,32.37-24.81,60.87-37.96c-15.29,1.13-33.84,5.56-49.7,18.18c-2.3,1.83-5.64,1.45-7.47-0.85
					c-1.83-2.3-1.45-5.64,0.85-7.47c37.96-30.22,87.41-18.97,89.5-18.47c2.67,0.63,4.42,3.19,4.04,5.91s-2.78,4.64-5.5,4.58
					c-21.99-0.99-69.62,31.8-86.1,44.5C7.59,284.92,6.45,285.28,5.32,285.28z"/>
			</g>
			<g>
				<path class="st1" d="M506.69,330.07c-1.43,0-2.85-0.57-3.89-1.7c-51.88-55.81-139.77-72.34-140.65-72.5
					c-2.89-0.53-4.8-3.29-4.28-6.18s3.29-4.8,6.18-4.28c3.74,0.68,92.22,17.28,146.54,75.72c2,2.15,1.88,5.51-0.27,7.51
					C509.28,329.6,507.98,330.07,506.69,330.07z"/>
			</g>
			<g>
				<path class="st1" d="M487.41,372.96c-2.05,0-4-1.19-4.87-3.18c-25.24-57.5-107.69-99.03-108.52-99.44
					c-2.63-1.31-3.7-4.5-2.39-7.12c1.31-2.63,4.49-3.7,7.12-2.4c3.53,1.75,86.73,43.64,113.53,104.69c1.18,2.69-0.04,5.82-2.73,7
					C488.85,372.81,488.13,372.96,487.41,372.96z"/>
			</g>
			<g>
				<path class="st1" d="M184.87,205.26c-0.22-1.45-0.04-2.92,0.45-4.3c0.99-2.78,3.65-6.92,10.83-7.95
					c9.59-1.38,37.82-2.9,37.46,8.14c-0.32,9.77-15.97,18.87-22.3,20.22C205.26,222.67,186.58,216.8,184.87,205.26z"/>
			</g>
			<g>
				<path class="st1" d="M349.17,207.43c-0.1,0-0.2,0-0.31,0l-56.2-1.6c-5.87-0.17-10.49-5.06-10.33-10.93
					c0.17-5.87,5.04-10.43,10.93-10.32l56.2,1.6c5.87,0.17,10.49,5.06,10.33,10.93C359.63,202.86,354.9,207.43,349.17,207.43z"/>
			</g>
			<g>
				<path class="st1" d="M163.59,197.89c-0.13,0-0.26,0-0.39-0.01l-44.94-1.6c-5.87-0.21-10.46-5.14-10.25-11
					c0.21-5.87,5.12-10.46,11-10.25l44.94,1.6c5.87,0.21,10.46,5.14,10.25,11C174.01,193.38,169.29,197.89,163.59,197.89z"/>
			</g>
		</g>
	</g>
	<g>
		<g>
			<path class="st13" d="M219.28,60.57c0,0,27.8-63.77,92.48-54.27s59.39,85.14,59.39,85.14"/>
			<path class="st14" d="M376.46,91.8l-10.61-0.74c0.2-2.88,4.12-70.84-54.86-79.5c-59.79-8.79-85.77,48.69-86.84,51.14l-9.74-4.25
				c0.29-0.67,30.18-67.39,98.13-57.41C381.3,11.13,376.52,91,376.46,91.8z"/>
		</g>
		<g>
			<path class="st13" d="M224.71,59.5c0,0-27.33,2.92-28.41,24.08s11.58,16.15,23.89,15.21c12.31-0.93,88.28-5.37,123.49,21.51
				s45.53-6.1,34.94-21.51C368.04,83.38,303.43,49.18,224.71,59.5z"/>
			<path class="st14" d="M366.99,135.77c-6.55,0-15.31-2.67-26.54-11.24c-34.2-26.1-111.2-21.09-119.87-20.43
				c-1.66,0.12-3.33,0.33-4.97,0.53c-6.69,0.81-14.27,1.74-19.55-3.18c-3.91-3.65-5.53-9.41-5.08-18.14
				c1.04-20.28,22.06-27.89,33.09-29.09C306.92,43.39,372.18,80.03,383,95.78c7.35,10.7,6.35,26.6-2.18,34.72
				C378.56,132.66,374.06,135.77,366.99,135.77z M245.11,92.6c29.62,0,75.7,3.56,101.79,23.48c11.87,9.06,21.57,11.51,26.59,6.73
				c4.72-4.49,5.08-14.69,0.75-21c-8.59-12.5-69.7-47.41-148.84-37.04l-0.12,0.01c-1.01,0.11-22.84,2.77-23.68,19.07
				c-0.36,7.08,1.07,9.22,1.71,9.82c1.66,1.54,6.42,0.97,11.02,0.4c1.8-0.22,3.63-0.44,5.45-0.58
				C224.02,93.17,233.25,92.6,245.11,92.6z"/>
		</g>
		<g>
			<g>
				<defs>
					<path id="SVGID_00000175289664026958796160000015525002825002290623_" d="M224.71,64.52c0,0-23.06,2.27-23.25,20.49
						c-0.15,13.78,7.06,9.44,19.36,8.51s88.66-5.59,123.87,21.29s36.37-5.16,28.41-14.05C359.95,86.07,303.43,54.2,224.71,64.52z"/>
				</defs>
				<clipPath id="SVGID_00000116212478611373341820000018042191681740187827_">
					<use xlink:href="#SVGID_00000175289664026958796160000015525002825002290623_"  style="overflow:visible;"/>
				</clipPath>
				<g style="clip-path:url(#SVGID_00000116212478611373341820000018042191681740187827_);">
					<path class="st16" d="M218.33,100.32c-5.89-16.95,8.15-41.66,9.77-44.42l9.17,5.38c-3.71,6.34-12.54,25.09-8.9,35.55
						L218.33,100.32z"/>
				</g>
			</g>
			<g>
				<defs>
					<path id="SVGID_00000112617186774878603830000008882754748418480294_" d="M224.71,64.52c0,0-23.06,2.27-23.25,20.49
						c-0.15,13.78,7.06,9.44,19.36,8.51s88.66-5.59,123.87,21.29s36.37-5.16,28.41-14.05C359.95,86.07,303.43,54.2,224.71,64.52z"/>
				</defs>
				<clipPath id="SVGID_00000006705653003661701050000001960184811585115839_">
					<use xlink:href="#SVGID_00000112617186774878603830000008882754748418480294_"  style="overflow:visible;"/>
				</clipPath>
				<g style="clip-path:url(#SVGID_00000006705653003661701050000001960184811585115839_);">
					<path class="st16" d="M254.53,98.94c-1.67-13.08,7.67-39.22,8.74-42.16l9.99,3.64c-2.66,7.31-9.32,28.25-8.19,37.17
						L254.53,98.94z"/>
				</g>
			</g>
			<g>
				<defs>
					<path id="SVGID_00000026160582516566422800000009185468795757050042_" d="M224.71,64.52c0,0-23.06,2.27-23.25,20.49
						c-0.15,13.78,7.06,9.44,19.36,8.51s88.66-5.59,123.87,21.29s36.37-5.16,28.41-14.05C359.95,86.07,303.43,54.2,224.71,64.52z"/>
				</defs>
				<clipPath id="SVGID_00000160875954489961395880000008816015542509958274_">
					<use xlink:href="#SVGID_00000026160582516566422800000009185468795757050042_"  style="overflow:visible;"/>
				</clipPath>
				<g style="clip-path:url(#SVGID_00000160875954489961395880000008816015542509958274_);">
					<path class="st16" d="M316.97,109.23l-8.3-6.64c3.11-3.88,4.14-21.64,3.31-35.86l10.61-0.62
						C323.05,74,324.01,100.44,316.97,109.23z"/>
				</g>
			</g>
			<g>
				<defs>
					<path id="SVGID_00000172427701637617104180000011252163688090292926_" d="M224.71,64.52c0,0-23.06,2.27-23.25,20.49
						c-0.15,13.78,7.06,9.44,19.36,8.51s88.66-5.59,123.87,21.29s36.37-5.16,28.41-14.05C359.95,86.07,303.43,54.2,224.71,64.52z"/>
				</defs>
				<clipPath id="SVGID_00000155845564864439001520000016500342444662469302_">
					<use xlink:href="#SVGID_00000172427701637617104180000011252163688090292926_"  style="overflow:visible;"/>
				</clipPath>
				<g style="clip-path:url(#SVGID_00000155845564864439001520000016500342444662469302_);">
					<path class="st16" d="M348.56,126.4l-5.54-9.07c8.05-4.92,5.24-26.96,2.62-36.86l10.28-2.72
						C356.94,81.63,365.49,116.05,348.56,126.4z"/>
				</g>
			</g>
		</g>
	</g>
</g>
</svg>
