<?xml version="1.0" encoding="utf-8"?>
<!-- Generator: Adobe Illustrator 27.0.0, SVG Export Plug-In . SVG Version: 6.00 Build 0)  -->
<svg version="1.1" id="_x31_11" xmlns="http://www.w3.org/2000/svg" xmlns:xlink="http://www.w3.org/1999/xlink" x="0px" y="0px"
	 viewBox="0 0 302.08 221.56" style="enable-background:new 0 0 302.08 221.56;" xml:space="preserve">
<style type="text/css">
	.st0{fill:#FFFFFF;}
	.st1{fill:#C4965B;}
	.st2{fill:#663A17;}
	.st3{fill:#A26E3E;}
	.st4{fill:#8B5235;}
	.st5{fill:#541B07;}
	.st6{clip-path:url(#SVGID_00000114059791972693820790000003203671925804898442_);}
	.st7{fill:#793E20;}
	.st8{clip-path:url(#SVGID_00000057843718709587073280000010564452504454472630_);}
	.st9{clip-path:url(#SVGID_00000103961794989717805370000011424509598986932403_);}
	.st10{clip-path:url(#SVGID_00000169557818530394409390000011145081974173785279_);}
</style>
<g>
	<g>
		<g>
			<path class="st0" d="M300.48,148.36c-3.56-14.38-20.66-11.87-36.36-6.08c-6.56-38.41-47.17-77.93-104.19-96.79
				C88.32,21.81,18.01,39.69,2.89,85.42s30.67,102,102.28,125.68c55.87,18.48,110.94,11.65,139.64-13.95
				c3.97,6.31,9.69,11,17.96,11.69C291.5,211.23,307.36,176.2,300.48,148.36z"/>
		</g>
		<g>
			
				<ellipse transform="matrix(0.314 -0.9494 0.9494 0.314 -30.2648 213.6559)" class="st1" cx="132.72" cy="127.77" rx="74.05" ry="121.56"/>
		</g>
		<g>
			<path class="st2" d="M54.49,173.23l-2.97-10.21c2.13-0.64,51.99-16.77,44.82-114.85l10.6-0.78
				C114.79,154.65,56.96,172.52,54.49,173.23z"/>
		</g>
		<g>
			<path class="st1" d="M249.04,162.83c0,0,34.84-21.42,39-4.59s-5.43,38-22.8,36.56C247.86,193.34,249.04,162.83,249.04,162.83z"/>
			<path class="st2" d="M266.88,200.17c-0.69,0-1.39-0.03-2.1-0.09c-17.71-1.48-21.58-24.24-21.07-37.46l0.11-2.84l2.42-1.49
				c4.34-2.67,26.65-15.74,39.15-10.62c4,1.64,6.7,4.85,7.8,9.28c2.92,11.8-0.07,25.54-7.43,34.17
				C280.75,197.01,274.11,200.17,266.88,200.17z M254.4,165.84c0.28,6.66,1.93,22.87,11.27,23.65c4.66,0.39,8.7-1.38,12-5.26
				c5.16-6.06,7.3-16.23,5.2-24.72c-0.35-1.42-0.93-1.76-1.5-2C276.35,155.46,263.25,160.85,254.4,165.84z"/>
		</g>
		<g>
			<path class="st3" d="M91.77,196.86l-9.32-14.23c21.85-14.31,36.41-30.68,45.81-51.51c10.87-24.1,12.9-49.48,6.02-75.43
				l16.44-4.36c7.9,29.82,5.56,59.02-6.96,86.78C133.12,161.7,116.12,180.92,91.77,196.86z"/>
		</g>
		<g>
			<path class="st3" d="M205.13,179.65c-2.25,0-4.49-0.88-6.16-2.64c-3.24-3.4-3.11-8.79,0.3-12.03
				c12.84-12.22,15.24-30.2,18.37-60.94c0.48-4.67,4.65-8.07,9.32-7.6c4.67,0.48,8.08,4.65,7.6,9.33
				c-3.1,30.38-5.55,54.38-23.57,71.53C209.35,178.87,207.23,179.65,205.13,179.65z"/>
		</g>
		<g>
			<path class="st3" d="M154.01,187.82c-2.13,0-4.27-0.8-5.92-2.4c-3.37-3.27-3.46-8.65-0.18-12.03
				c8.12-8.38,18.69-24.53,24.57-37.57c11.52-25.53,7.77-42.74,5.03-55.3c-0.44-2.03-0.85-3.91-1.16-5.65
				c-0.84-4.62,2.23-9.05,6.86-9.88c4.64-0.83,9.05,2.23,9.88,6.86c0.28,1.56,0.65,3.24,1.05,5.05c2.87,13.19,7.68,35.27-6.14,65.92
				c-6.8,15.07-18.25,32.51-27.86,42.42C158.45,186.96,156.23,187.82,154.01,187.82z"/>
		</g>
		<g>
			<path class="st2" d="M166.79,212.98c-18.6,0-38.74-3.18-58.99-9.87c-31.74-10.5-59.15-27.96-77.18-49.19
				c-18.65-21.96-25.17-45.4-18.36-66C26.01,46.37,91.22,30.44,157.64,52.4c66.42,21.97,109.28,73.64,95.54,115.19l0,0
				C243.63,196.48,209.2,212.98,166.79,212.98z M97.87,53C60.4,53,30.45,66.79,22.36,91.26c-5.61,16.95,0.21,36.76,16.37,55.78
				c16.78,19.75,42.5,36.08,72.42,45.97c60.86,20.12,120.05,7.22,131.95-28.76s-27.93-81.63-88.78-101.76
				C134.83,56.06,115.52,53,97.87,53z"/>
		</g>
		<g>
			<path class="st2" d="M77.55,103.14c-22.72,0-39.26-4.97-39.96-5.19c-2.81-0.86-4.39-3.83-3.53-6.64s3.83-4.39,6.63-3.53l0,0
				c0.16,0.05,15.9,4.79,36.99,4.72c0,0,0,0,0.01,0c2.93,0,5.31,2.38,5.32,5.31c0,2.93-2.38,5.32-5.31,5.32
				C77.65,103.14,77.6,103.14,77.55,103.14z"/>
		</g>
	</g>
	<g>
		<g>
			<path class="st4" d="M98.23,34.73c0,0,23.31-38.84,64.27-27.28s31.2,59.96,31.2,59.96"/>
			<path class="st5" d="M198.92,68.47l-10.42-2.11c0.35-1.77,8.24-43.72-27.43-53.79c-36.47-10.3-57.4,23.46-58.28,24.9L93.68,32
				c0.25-0.42,25.91-42.18,70.28-29.66C200.11,12.55,202.63,50.06,198.92,68.47z"/>
		</g>
		<g>
			<path class="st4" d="M101.83,34.5c0,0-17.89-0.41-20.37,13.16s6.12,11.4,14.15,11.83s57.45,3.95,77.93,24.26
				s29.91-0.11,24.37-10.95S153.52,34.45,101.83,34.5z"/>
			<path class="st5" d="M189.19,97.69c-4.88,0-11.43-2.26-19.4-10.17C150.4,68.29,100.9,65.1,95.32,64.8
				c-1.05-0.06-2.12-0.06-3.16-0.07c-4.79-0.04-10.23-0.08-13.78-4.37c-2.56-3.1-3.26-7.56-2.15-13.65
				c2.6-14.22,17.83-17.7,25.65-17.53c0.02,0,0.05,0,0.08,0c51.52,0,93.53,27.2,100.68,41.2c4.24,8.29,2,19.55-4.88,24.58
				C196.15,96.13,193.25,97.69,189.19,97.69z M101.6,39.81c-1.44,0-13.35,0.26-14.91,8.81c-0.71,3.88-0.11,4.97-0.1,4.98
				c0.65,0.46,3.78,0.48,5.65,0.5c1.21,0.01,2.43,0.02,3.65,0.09c9.78,0.53,59.66,4.24,81.39,25.79c6.01,5.96,11.45,8.41,14.21,6.4
				c2.67-1.95,3.52-7.58,1.69-11.16c-4.22-8.25-40.9-35.4-91.21-35.4c-0.05,0-0.08,0-0.13,0h-0.11
				C101.7,39.81,101.66,39.81,101.6,39.81z"/>
		</g>
		<g>
			<g>
				<g>
					<defs>
						<path id="SVGID_1_" d="M101.34,39.79c0,0-12.93-0.79-14.52,9.46c-0.97,6.24,1.66,4.7,9.68,5.13s58.59,3.31,78.78,23.91
							c18.15,18.53,21.36,2.35,17.71-3.66C183.54,59.07,134.98,37.71,101.34,39.79z"/>
					</defs>
					<clipPath id="SVGID_00000145775408032834945970000017350278358886801290_">
						<use xlink:href="#SVGID_1_"  style="overflow:visible;"/>
					</clipPath>
					<g style="clip-path:url(#SVGID_00000145775408032834945970000017350278358886801290_);">
						<path class="st7" d="M92.46,60.7c-2.55-12.25,9.06-27.66,10.39-29.37l8.4,6.52l-4.2-3.26l4.2,3.25
							c-3.86,5-9.56,15.05-8.38,20.7L92.46,60.7z"/>
					</g>
				</g>
			</g>
			<g>
				<g>
					<defs>
						<path id="SVGID_00000114042394519700015630000005049170425709187732_" d="M101.34,39.79c0,0-12.93-0.79-14.52,9.46
							c-0.97,6.24,1.66,4.7,9.68,5.13s58.59,3.31,78.78,23.91c18.15,18.53,21.36,2.35,17.71-3.66
							C183.54,59.07,134.98,37.71,101.34,39.79z"/>
					</defs>
					<clipPath id="SVGID_00000037653404736633266920000012814254621044665761_">
						<use xlink:href="#SVGID_00000114042394519700015630000005049170425709187732_"  style="overflow:visible;"/>
					</clipPath>
					<g style="clip-path:url(#SVGID_00000037653404736633266920000012814254621044665761_);">
						<path class="st7" d="M126.55,62.49l-10.63-0.03c0.02-9.02,8.44-25.49,9.4-27.33l9.44,4.9
							C131.59,46.13,126.56,57.62,126.55,62.49z"/>
					</g>
				</g>
			</g>
			<g>
				<g>
					<defs>
						<path id="SVGID_00000129924058206201156260000012550740741061978500_" d="M101.34,39.79c0,0-12.93-0.79-14.52,9.46
							c-0.97,6.24,1.66,4.7,9.68,5.13s58.59,3.31,78.78,23.91c18.15,18.53,21.36,2.35,17.71-3.66
							C183.54,59.07,134.98,37.71,101.34,39.79z"/>
					</defs>
					<clipPath id="SVGID_00000137834905422120475430000011540842412672478621_">
						<use xlink:href="#SVGID_00000129924058206201156260000012550740741061978500_"  style="overflow:visible;"/>
					</clipPath>
					<g style="clip-path:url(#SVGID_00000137834905422120475430000011540842412672478621_);">
						<path class="st7" d="M158.5,75.7l-7.37-7.66c1.74-1.85,3.89-11.98,4.59-21.67l10.6,0.76C165.84,53.92,164.11,70.31,158.5,75.7
							z"/>
					</g>
				</g>
			</g>
			<g>
				<g>
					<defs>
						<path id="SVGID_00000105424404878652906040000015061169607108676287_" d="M101.34,39.79c0,0-12.93-0.79-14.52,9.46
							c-0.97,6.24,1.66,4.7,9.68,5.13s58.59,3.31,78.78,23.91c18.15,18.53,21.36,2.35,17.71-3.66
							C183.54,59.07,134.98,37.71,101.34,39.79z"/>
					</defs>
					<clipPath id="SVGID_00000081635165422630355420000014139084270611249818_">
						<use xlink:href="#SVGID_00000105424404878652906040000015061169607108676287_"  style="overflow:visible;"/>
					</clipPath>
					<g style="clip-path:url(#SVGID_00000081635165422630355420000014139084270611249818_);">
						<path class="st7" d="M176.93,89.79l-4.33-9.71c3.95-1.76,4.69-13.92,3.7-21.65l10.54-1.37
							C187.43,61.53,189.69,84.11,176.93,89.79z"/>
					</g>
				</g>
			</g>
		</g>
	</g>
</g>
</svg>
