<?xml version="1.0" encoding="utf-8"?>
<!-- Generator: Adobe Illustrator 27.0.0, SVG Export Plug-In . SVG Version: 6.00 Build 0)  -->
<svg version="1.1" id="fish_x5F_hat" xmlns="http://www.w3.org/2000/svg" xmlns:xlink="http://www.w3.org/1999/xlink" x="0px"
	 y="0px" viewBox="0 0 129.1 97.7" style="enable-background:new 0 0 129.1 97.7;" xml:space="preserve">
<style type="text/css">
	.st0{fill:#8B5235;}
	.st1{fill:#541B07;}
	.st2{clip-path:url(#SVGID_00000181789877239867541060000014632816108026607253_);}
	.st3{fill:#793E20;}
</style>
<g>
	<g>
		<path class="st0" d="M22.5,34.7c0,0,23.3-38.8,64.3-27.3s31.2,60,31.2,60"/>
		<path class="st1" d="M123.2,68.5l-10.4-2.1c0.3-1.8,8.2-43.7-27.4-53.8C48.9,2.3,27.9,36,27.1,37.5L18,32
			c0.2-0.4,25.9-42.2,70.3-29.7C124.4,12.6,126.9,50.1,123.2,68.5z"/>
	</g>
	<g>
		<path class="st0" d="M26.1,34.5c0,0-17.9-0.4-20.4,13.2s6.1,11.4,14.1,11.8c8,0.4,57.4,4,77.9,24.3s29.9-0.1,24.4-10.9
			C116.7,62,77.8,34.5,26.1,34.5z"/>
		<path class="st1" d="M113.5,97.7c-4.9,0-11.4-2.3-19.4-10.2C74.7,68.3,25.2,65.1,19.6,64.8c-1-0.1-2.1-0.1-3.2-0.1
			c-4.8,0-10.2-0.1-13.8-4.4c-2.6-3.1-3.3-7.6-2.1-13.6C3.1,32.5,18.3,29,26.2,29.2h0.1c51.5,0,93.5,27.2,100.7,41.2
			c4.2,8.3,2,19.5-4.9,24.6C120.4,96.1,117.5,97.7,113.5,97.7L113.5,97.7z M25.9,39.8c-1.4,0-13.4,0.3-14.9,8.8
			c-0.7,3.9-0.1,5-0.1,5c0.6,0.5,3.8,0.5,5.6,0.5c1.2,0,2.4,0,3.6,0.1c9.8,0.5,59.7,4.2,81.4,25.8c6,6,11.4,8.4,14.2,6.4
			c2.7-1.9,3.5-7.6,1.7-11.2c-4.2-8.2-40.9-35.4-91.2-35.4H26C26,39.8,26,39.8,25.9,39.8L25.9,39.8z"/>
	</g>
	<g>
		<defs>
			<path id="SVGID_1_" d="M25.6,39.8c0,0-12.9-0.8-14.5,9.5c-1,6.2,1.7,4.7,9.7,5.1s58.6,3.3,78.8,23.9c18.2,18.5,21.4,2.3,17.7-3.7
				C107.8,59.1,59.3,37.7,25.6,39.8z"/>
		</defs>
		<clipPath id="SVGID_00000166673751497595077690000014573395798084708277_">
			<use xlink:href="#SVGID_1_"  style="overflow:visible;"/>
		</clipPath>
		<g style="clip-path:url(#SVGID_00000166673751497595077690000014573395798084708277_);">
			<path class="st3" d="M16.7,60.7C14.2,48.5,25.8,33,27.1,31.3l8.4,6.5l-4.2-3.3l4.2,3.2c-3.9,5-9.6,15-8.4,20.7
				C27.1,58.5,16.7,60.7,16.7,60.7z"/>
			<path class="st3" d="M50.8,62.5l-10.6,0c0-9,8.4-25.5,9.4-27.3L59,40C55.9,46.1,50.8,57.6,50.8,62.5L50.8,62.5z"/>
			<path class="st3" d="M82.8,75.7L75.4,68c1.7-1.8,3.9-12,4.6-21.7l10.6,0.8C90.1,53.9,88.4,70.3,82.8,75.7L82.8,75.7z"/>
			<path class="st3" d="M101.2,89.8l-4.3-9.7c3.9-1.8,4.7-13.9,3.7-21.7l10.5-1.4C111.7,61.5,114,84.1,101.2,89.8L101.2,89.8z"/>
		</g>
	</g>
</g>
</svg>
