<?xml version="1.0" encoding="utf-8"?>
<!-- Generator: Adobe Illustrator 27.0.0, SVG Export Plug-In . SVG Version: 6.00 Build 0)  -->
<svg version="1.1" id="cat_x5F_hat" xmlns="http://www.w3.org/2000/svg" xmlns:xlink="http://www.w3.org/1999/xlink" x="0px"
	 y="0px" viewBox="0 0 197 135.8" style="enable-background:new 0 0 197 135.8;" xml:space="preserve">
<style type="text/css">
	.st0{fill:#8B5235;}
	.st1{fill:#541B07;}
	.st2{clip-path:url(#SVGID_00000078036671429590927330000016497125252080714169_);}
	.st3{fill:#793E20;}
</style>
<g>
	<g>
		<path class="st0" d="M28.4,60.5c0,0,27.8-63.8,92.5-54.3s59.4,85.1,59.4,85.1"/>
		<path class="st1" d="M185.5,91.8L174.9,91c0.2-2.9,4.1-70.8-54.9-79.5C60.3,2.7,34.3,60.2,33.2,62.7l-9.7-4.2
			C23.8,57.8,53.7-9,121.6,1C190.4,11.1,185.6,91,185.5,91.8L185.5,91.8z"/>
	</g>
	<g>
		<path class="st0" d="M33.8,59.5c0,0-27.3,2.9-28.4,24.1C4.3,104.7,17,99.7,29.3,98.8c12.3-0.9,88.3-5.4,123.5,21.5
			c35.2,26.9,45.5-6.1,34.9-21.5S112.5,49.2,33.8,59.5L33.8,59.5z"/>
		<path class="st1" d="M176.1,135.8c-6.6,0-15.3-2.7-26.5-11.2c-34.2-26.1-111.2-21.1-119.9-20.4c-1.7,0.1-3.3,0.3-5,0.5
			c-6.7,0.8-14.3,1.7-19.5-3.2C1.2,97.8-0.4,92,0.1,83.3c1-20.3,22.1-27.9,33.1-29.1C116,43.4,181.3,80,192.1,95.8
			c7.4,10.7,6.4,26.6-2.2,34.7C187.7,132.6,183.2,135.7,176.1,135.8L176.1,135.8z M54.2,92.6c29.6,0,75.7,3.6,101.8,23.5
			c11.9,9.1,21.6,11.5,26.6,6.7c4.7-4.5,5.1-14.7,0.8-21c-8.6-12.5-69.7-47.4-148.8-37h-0.1c-1,0.1-22.8,2.8-23.7,19.1
			c-0.4,7.1,1.1,9.2,1.7,9.8c1.7,1.5,6.4,1,11,0.4c1.8-0.2,3.6-0.4,5.5-0.6C33.1,93.2,42.3,92.6,54.2,92.6z"/>
	</g>
	<g>
		<defs>
			<path id="SVGID_1_" d="M33.8,64.5c0,0-23.1,2.3-23.2,20.5c-0.1,13.8,7.1,9.4,19.4,8.5c12.3-0.9,88.7-5.6,123.9,21.3
				s36.4-5.2,28.4-14.1C169,86.1,112.5,54.2,33.8,64.5z"/>
		</defs>
		<clipPath id="SVGID_00000120560236811486606340000012218285206116446594_">
			<use xlink:href="#SVGID_1_"  style="overflow:visible;"/>
		</clipPath>
		<g style="clip-path:url(#SVGID_00000120560236811486606340000012218285206116446594_);">
			<path class="st3" d="M27.4,100.3c-5.9-16.9,8.1-41.7,9.8-44.4l9.2,5.4c-3.7,6.3-12.5,25.1-8.9,35.5
				C37.4,96.8,27.4,100.3,27.4,100.3z"/>
			<path class="st3" d="M63.6,98.9c-1.7-13.1,7.7-39.2,8.7-42.2l10,3.6c-2.7,7.3-9.3,28.2-8.2,37.2L63.6,98.9L63.6,98.9z"/>
			<path class="st3" d="M126.1,109.2l-8.3-6.6c3.1-3.9,4.1-21.6,3.3-35.9l10.6-0.6C132.1,74,133.1,100.4,126.1,109.2L126.1,109.2z"
				/>
			<path class="st3" d="M157.6,126.4l-5.5-9.1c8.1-4.9,5.2-27,2.6-36.9l10.3-2.7C166,81.6,174.6,116,157.6,126.4L157.6,126.4z"/>
		</g>
	</g>
</g>
</svg>
